<svg width="24" height="33" viewBox="0 0 24 33" fill="none" xmlns="http://www.w3.org/2000/svg">
<path d="M1.40458 11.012L4.5622 10.3027L4.50332 28.9082L1.3457 29.6175L1.40458 11.012Z" fill="#D4D4D4"/>
<path d="M9.8176 2.15627L12.9745 1.44629L12.9643 10.85L9.80664 11.5593L9.8176 2.15627Z" fill="#D4D4D4"/>
<path d="M17.1521 24.8861L20.309 24.1768L20.3056 25.4242L17.1479 26.1335L17.1521 24.8861Z" fill="#D4D4D4"/>
<path d="M3.18408 23.9827L6.34102 23.2734L20.3093 24.1765L17.1524 24.8858L3.18408 23.9827Z" fill="#9D9D9D"/>
<path d="M1.3457 29.6175L4.50332 28.9082L22.5665 30.0762L19.4089 30.7855L1.3457 29.6175Z" fill="#9D9D9D"/>
<path d="M3.19775 19.6546L6.35469 18.9453L20.323 19.8484L17.166 20.5577L3.19775 19.6546Z" fill="#9D9D9D"/>
<path d="M17.1657 20.557L20.3227 19.8477L20.3192 21.0951L17.1616 21.8044L17.1657 20.557Z" fill="#D4D4D4"/>
<path d="M17.1799 16.2298L20.3368 15.5205L20.3334 16.7679L17.1758 17.4779L17.1799 16.2298Z" fill="#D4D4D4"/>
<path d="M3.21143 15.3265L6.36836 14.6172L20.3366 15.5202L17.1797 16.2295L3.21143 15.3265Z" fill="#9D9D9D"/>
<path d="M19.5019 1.35667L20.7761 1.43882L20.7713 2.86427L20.683 30.8679L20.6782 32.2934L19.404 32.2112L1.34152 31.0432L0.0673828 30.9611L0.0721754 29.5356L0.132425 10.455L9.49231 0.708984L19.5019 1.35667ZM19.4088 30.7858L19.4971 2.78211L9.81752 2.15634L9.80725 11.56L1.40519 11.013L1.34563 29.6178L19.4088 30.7858Z" fill="white"/>
<path d="M17.1521 24.8855L17.148 26.1329L3.17969 25.2299L3.1838 23.9824L17.1521 24.8855Z" fill="white"/>
<path d="M17.1658 20.5574L17.1616 21.8048L3.19336 20.9017L3.19747 19.6543L17.1658 20.5574Z" fill="white"/>
<path d="M17.1794 16.2292L17.1753 17.4774L3.20703 16.5736L3.21114 15.3262L17.1794 16.2292Z" fill="white"/>
<path d="M20.683 30.8685L23.8399 30.1592L23.8358 31.5846L20.6782 32.2939L20.683 30.8685Z" fill="#D4D4D4"/>
<path d="M9.49219 0.7093L12.6491 0L22.6595 0.646997L19.5019 1.35698L9.49219 0.7093Z" fill="#9D9D9D"/>
<path d="M20.7714 2.86457L23.929 2.15527L23.84 30.1589L20.6831 30.8682L20.7714 2.86457Z" fill="#D4D4D4"/>
<path d="M19.502 1.35647L22.6596 0.646484L23.933 0.729327L20.7761 1.43863L19.502 1.35647Z" fill="#9D9D9D"/>
<path d="M20.7758 1.43879L23.9327 0.729492L23.9286 2.15494L20.771 2.86424L20.7758 1.43879Z" fill="#D4D4D4"/>
</svg>
