<svg width="27" height="35" viewBox="0 0 27 35" fill="none" xmlns="http://www.w3.org/2000/svg">
<path d="M5.31855 10.4204L9.79024 9.04688C9.63043 9.0959 9.49121 9.19002 9.37062 9.32237L4.89893 10.6959C5.01952 10.5636 5.15874 10.4695 5.31855 10.4204Z" fill="#858585"/>
<path d="M4.8988 10.6958L9.37049 9.32227C9.33814 9.35756 9.30775 9.39482 9.27833 9.43501L4.80664 10.8086C4.83605 10.7684 4.86645 10.7311 4.8988 10.6958Z" fill="#8A8A8A"/>
<path d="M4.80606 10.8101L9.27775 9.43652C9.26207 9.45809 9.24638 9.48064 9.23069 9.50417C9.21207 9.5326 9.19442 9.56104 9.17677 9.58947L4.70508 10.963C4.72273 10.9346 4.74037 10.9062 4.759 10.8777C4.77469 10.8542 4.79037 10.8317 4.80606 10.8101Z" fill="#8F8F8F"/>
<path d="M4.70503 10.9624L9.17672 9.58887C9.13652 9.65357 9.09927 9.72024 9.06495 9.78789L4.59326 11.1615C4.62856 11.0938 4.66581 11.0271 4.70503 10.9624Z" fill="#949494"/>
<path d="M4.59311 11.1617L9.06481 9.78809C9.03441 9.84691 9.005 9.9077 8.97853 9.96848L4.50684 11.3421C4.53331 11.2813 4.56272 11.2205 4.59311 11.1617Z" fill="#999999"/>
<path d="M4.50662 11.3423L8.97831 9.96875C8.9538 10.0246 8.93125 10.0815 8.90968 10.1384L4.43799 11.5119C4.45956 11.4551 4.48211 11.3982 4.50662 11.3423Z" fill="#9E9E9E"/>
<path d="M4.43821 11.5113L8.9099 10.1377C8.89029 10.1916 8.87167 10.2465 8.85402 10.3024L4.38232 11.676C4.39997 11.6201 4.4186 11.5652 4.43821 11.5113Z" fill="#A3A3A3"/>
<path d="M4.3825 11.6763L8.85419 10.3027C8.83753 10.3567 8.82282 10.4106 8.80909 10.4655L4.3374 11.8391C4.35113 11.7841 4.36681 11.7292 4.3825 11.6763Z" fill="#A8A8A8"/>
<path d="M4.33706 11.8394L8.80875 10.4658C8.79502 10.5197 8.78326 10.5746 8.77247 10.6305L4.30078 12.0041C4.31157 11.9482 4.32333 11.8933 4.33706 11.8394Z" fill="#ADADAD"/>
<path d="M4.30089 12.0035L8.77259 10.6299C8.7618 10.6858 8.752 10.7426 8.74415 10.7995L4.27246 12.1731C4.2803 12.1162 4.29011 12.0593 4.30089 12.0035Z" fill="#B3B3B3"/>
<path d="M4.27254 12.1734L8.74423 10.7998C8.73541 10.8586 8.72855 10.9184 8.72365 10.9782L4.25195 12.3518C4.25686 12.292 4.26372 12.2322 4.27254 12.1734Z" fill="#B8B8B8"/>
<path d="M4.252 12.3521L8.72369 10.9785C8.71781 11.0413 8.71389 11.106 8.71193 11.1707L4.24023 12.5442C4.2422 12.4795 4.24612 12.4158 4.252 12.3521Z" fill="#BDBDBD"/>
<path d="M4.23909 12.5445L8.71078 11.1709C8.71078 11.1758 8.71078 11.1817 8.7098 11.1866C8.69902 11.5415 8.69607 11.8944 8.70196 12.2464L4.23026 13.62C4.22438 13.268 4.22634 12.9151 4.23811 12.5602C4.23909 12.5553 4.23909 12.5494 4.23909 12.5445Z" fill="#C2C2C2"/>
<path d="M4.23145 13.6197L8.70314 12.2461C8.71 12.6549 8.72961 13.0618 8.76 13.4657L4.28831 14.8393C4.25792 14.4344 4.23929 14.0285 4.23145 13.6197Z" fill="#C7C7C7"/>
<path d="M4.28809 14.8394L8.75978 13.4658C8.79311 13.908 8.84017 14.3472 8.89998 14.7845L4.42829 16.1581C4.36848 15.7208 4.32142 15.2816 4.28809 14.8394Z" fill="#CCCCCC"/>
<path d="M4.42822 16.1577L8.89992 14.7842C8.96953 15.2901 9.05776 15.793 9.16267 16.293L4.69098 17.6666C4.58607 17.1666 4.49783 16.6636 4.42822 16.1577Z" fill="#D1D1D1"/>
<path d="M4.69092 17.6656L9.16261 16.292C9.29889 16.9381 9.4636 17.5783 9.65772 18.2126L5.18603 19.5862C4.99289 18.9519 4.8272 18.3117 4.69092 17.6656Z" fill="#D6D6D6"/>
<path d="M5.18652 19.5865L9.65822 18.2129C9.9994 19.3315 10.4278 20.4335 10.9386 21.5189C10.97 21.5855 11.0024 21.6512 11.0347 21.7169L6.56303 23.0905C6.5297 23.0248 6.49832 22.9591 6.46695 22.8924C5.95615 21.8071 5.52771 20.7051 5.18652 19.5865Z" fill="#DBDBDB"/>
<path d="M6.5625 23.0904L11.0342 21.7168C11.2038 22.056 11.394 22.3854 11.595 22.708L7.1233 24.0816C6.92231 23.76 6.73211 23.4296 6.5625 23.0904Z" fill="#E0E0E0"/>
<path d="M7.12354 24.0816L11.5952 22.708C11.7472 22.9512 11.905 23.1904 12.0639 23.4267C12.1109 23.4963 12.1619 23.561 12.2158 23.6218L7.74414 24.9953C7.68924 24.9345 7.63826 24.8698 7.59218 24.8002C7.43335 24.5649 7.2755 24.3257 7.12354 24.0816Z" fill="#DBDBDB"/>
<path d="M7.74512 24.9956L12.2168 23.6221C12.257 23.6662 12.2982 23.7093 12.3423 23.7495L7.87061 25.1231C7.82649 25.0829 7.78433 25.0407 7.74512 24.9956Z" fill="#D6D6D6"/>
<path d="M7.86963 25.1226L12.3412 23.749C12.3785 23.7843 12.4177 23.8167 12.4579 23.849L7.9863 25.2226C7.9461 25.1902 7.90786 25.1569 7.86963 25.1226Z" fill="#D1D1D1"/>
<path d="M7.98633 25.2232L12.458 23.8496C12.4963 23.88 12.5355 23.9084 12.5757 23.9359L8.10398 25.3095C8.06378 25.282 8.02456 25.2536 7.98633 25.2232Z" fill="#CCCCCC"/>
<path d="M8.104 25.3091L12.5757 23.9355C12.6159 23.963 12.6571 23.9895 12.6982 24.014L8.22656 25.3875C8.1844 25.363 8.1442 25.3366 8.104 25.3091Z" fill="#C7C7C7"/>
<path d="M8.22656 25.3872L12.6983 24.0137C12.7414 24.0392 12.7845 24.0637 12.8296 24.0872L8.35794 25.4608C8.31284 25.4372 8.2697 25.4127 8.22656 25.3872Z" fill="#C2C2C2"/>
<path d="M8.35791 25.4615L12.8296 24.0879C12.8767 24.1124 12.9247 24.135 12.9727 24.1565L8.50105 25.5301C8.45203 25.5085 8.40497 25.486 8.35791 25.4615Z" fill="#BDBDBD"/>
<path d="M8.50098 25.5298L12.9727 24.1562C13.0237 24.1788 13.0746 24.2004 13.1266 24.22L8.6549 25.5935C8.60294 25.5739 8.55196 25.5524 8.50098 25.5298Z" fill="#B8B8B8"/>
<path d="M8.65479 25.5933L13.1265 24.2197C13.1275 24.2197 13.1284 24.2207 13.1294 24.2207C13.152 24.2295 13.1735 24.2364 13.1951 24.2433L8.7244 25.6178C8.70283 25.6109 8.68028 25.6031 8.65871 25.5953C8.65675 25.5943 8.65577 25.5933 8.65479 25.5933Z" fill="#B3B3B3"/>
<path d="M8.72461 25.6177L13.1963 24.2441C13.2179 24.251 13.2385 24.2569 13.26 24.2618L8.78834 25.6354C8.76677 25.6295 8.7452 25.6236 8.72461 25.6177Z" fill="#ADADAD"/>
<path d="M8.78711 25.6353L13.2588 24.2617C13.2794 24.2666 13.299 24.2715 13.3196 24.2754L8.84789 25.649C8.82829 25.6451 8.8077 25.6402 8.78711 25.6353Z" fill="#A8A8A8"/>
<path d="M8.84814 25.648L13.3198 24.2744C13.3394 24.2783 13.3591 24.2813 13.3796 24.2832L8.90795 25.6568C8.88834 25.6548 8.86873 25.6519 8.84814 25.648Z" fill="#A3A3A3"/>
<path d="M8.90771 25.6577L13.3794 24.2842C13.3902 24.2852 13.4 24.2861 13.4108 24.2871C13.4196 24.2881 13.4294 24.2891 13.4382 24.2891L8.96654 25.6627C8.95772 25.6617 8.94791 25.6617 8.93909 25.6607C8.9283 25.6597 8.9185 25.6587 8.90771 25.6577Z" fill="#9E9E9E"/>
<path d="M8.9668 25.6626L13.4385 24.2891C13.4591 24.29 13.4787 24.291 13.4993 24.29L9.02758 25.6636C9.00797 25.6646 8.98739 25.6636 8.9668 25.6626Z" fill="#999999"/>
<path d="M9.02832 25.6636L13.5 24.2901C13.5216 24.2901 13.5432 24.2881 13.5647 24.2861L9.09303 25.6597C9.07146 25.6626 9.04989 25.6636 9.02832 25.6636Z" fill="#949494"/>
<path d="M9.09229 25.6607L13.564 24.2871C13.5885 24.2852 13.612 24.2813 13.6365 24.2773L9.16484 25.6509C9.14131 25.6548 9.1168 25.6578 9.09229 25.6607Z" fill="#8F8F8F"/>
<path d="M9.16455 25.65L13.6362 24.2765C13.6657 24.2706 13.6941 24.2637 13.7235 24.2549L9.25181 25.6285C9.2224 25.6373 9.19396 25.6451 9.16455 25.65Z" fill="#8A8A8A"/>
<path d="M4.15088 1.5801L8.62257 0.206533C8.78336 0.157512 8.94709 0.117315 9.11376 0.0849609L4.64207 1.45853C4.4754 1.4899 4.31167 1.5301 4.15088 1.5801Z" fill="#8A8A8A"/>
<path d="M4.64209 1.45877L9.11378 0.0852039C9.2579 0.0577522 9.40399 0.0371634 9.55203 0.0234375L5.08132 1.39701C4.93229 1.41073 4.78621 1.43132 4.64209 1.45877Z" fill="#8F8F8F"/>
<path d="M5.08154 1.39709L9.55324 0.0235262C9.68853 0.0107808 9.82579 0.0029374 9.96599 0.000976562L5.49332 1.37454C5.3541 1.37651 5.21684 1.38435 5.08154 1.39709Z" fill="#949494"/>
<path d="M5.49316 1.37416L9.96486 0.00059634C10.0992 -0.0013645 10.2345 0.00157676 10.3727 0.0084397L5.90102 1.38201C5.76376 1.37416 5.62748 1.37122 5.49316 1.37416Z" fill="#999999"/>
<path d="M5.90088 1.38236L10.3726 0.00878906C10.4363 0.0127107 10.5 0.0166324 10.5647 0.0225149L6.09304 1.39608C6.02931 1.3902 5.96461 1.38628 5.90088 1.38236Z" fill="#9E9E9E"/>
<path d="M15.776 31.8335L20.2477 30.46C20.1948 30.5158 20.1428 30.5717 20.0908 30.6286L15.6191 32.0022C15.6711 31.9453 15.7231 31.8884 15.776 31.8335Z" fill="#858585"/>
<path d="M15.6191 32.0025L20.0908 30.6289C20.0075 30.7201 19.9242 30.8132 19.8408 30.9044L15.3691 32.278C15.4535 32.1858 15.5358 32.0937 15.6191 32.0025Z" fill="#8A8A8A"/>
<path d="M15.3704 32.2779L19.8421 30.9043C19.6803 31.0808 19.5166 31.2533 19.3381 31.4063C18.7342 31.9239 18.095 32.2896 17.4204 32.4965L12.9487 33.8701C13.6242 33.6622 14.2635 33.2965 14.8664 32.7798C15.0449 32.6269 15.2086 32.4543 15.3704 32.2779Z" fill="#858585"/>
<path d="M16.0313 31.3462L20.503 29.9727C20.4177 30.1354 20.3334 30.2982 20.2481 30.4589L15.7764 31.8325C15.8617 31.6717 15.946 31.509 16.0313 31.3462Z" fill="#949494"/>
<path d="M11.0605 24.5417L15.5322 23.1681C15.5783 23.1544 15.6234 23.1426 15.6695 23.1338L11.1978 24.5074C11.1527 24.5162 11.1066 24.527 11.0605 24.5417Z" fill="#8A8A8A"/>
<path d="M11.1978 24.5074L15.6694 23.1338C15.7038 23.127 15.7381 23.1221 15.7724 23.1191L11.3007 24.4927C11.2664 24.4966 11.2321 24.5015 11.1978 24.5074Z" fill="#8F8F8F"/>
<path d="M11.3008 24.4927L15.7725 23.1192C15.8009 23.1162 15.8284 23.1152 15.8568 23.1143L11.3851 24.4878C11.3567 24.4888 11.3292 24.4898 11.3008 24.4927Z" fill="#949494"/>
<path d="M11.3853 24.4878L15.8569 23.1143C15.8815 23.1143 15.9069 23.1143 15.9315 23.1152L11.4598 24.4888C11.4343 24.4878 11.4098 24.4878 11.3853 24.4878Z" fill="#999999"/>
<path d="M11.4585 24.4898L15.9302 23.1162C15.941 23.1172 15.9518 23.1172 15.9625 23.1182C15.9743 23.1192 15.9861 23.1201 15.9978 23.1221L11.5261 24.4957C11.5144 24.4947 11.5026 24.4927 11.4908 24.4917C11.481 24.4908 11.4693 24.4898 11.4585 24.4898Z" fill="#9E9E9E"/>
<path d="M11.5273 24.4956L15.999 23.1221C16.0206 23.125 16.0422 23.128 16.0637 23.1319L11.5921 24.5054C11.5705 24.5015 11.5489 24.4986 11.5273 24.4956Z" fill="#A3A3A3"/>
<path d="M11.5908 24.5054L16.0626 23.1318C16.0832 23.1358 16.1038 23.1407 16.1254 23.1456L11.6536 24.5191C11.633 24.5142 11.6124 24.5093 11.5908 24.5054Z" fill="#A8A8A8"/>
<path d="M11.6538 24.5191L16.1255 23.1455C16.1461 23.1504 16.1667 23.1563 16.1873 23.1632L11.7156 24.5367C11.695 24.5299 11.6744 24.524 11.6538 24.5191Z" fill="#ADADAD"/>
<path d="M11.7153 24.5367L16.187 23.1631C16.2076 23.1699 16.2292 23.1768 16.2498 23.1847L11.7781 24.5582C11.7575 24.5504 11.7359 24.5425 11.7153 24.5367Z" fill="#B3B3B3"/>
<path d="M11.7783 24.5581L16.25 23.1846C16.2716 23.1924 16.2932 23.2012 16.3147 23.211L11.843 24.5846C11.8215 24.5748 11.7999 24.566 11.7783 24.5581Z" fill="#B8B8B8"/>
<path d="M11.8428 24.5845L16.3145 23.2109C16.337 23.2207 16.3605 23.2325 16.3831 23.2443L11.9114 24.6178C11.8879 24.6061 11.8653 24.5953 11.8428 24.5845Z" fill="#BDBDBD"/>
<path d="M11.9116 24.6187L16.3833 23.2451C16.4078 23.2579 16.4333 23.2716 16.4578 23.2863L11.9861 24.6599C11.9606 24.6452 11.9361 24.6314 11.9116 24.6187Z" fill="#C2C2C2"/>
<path d="M11.9849 24.6597L16.4566 23.2861C16.484 23.3028 16.5124 23.3204 16.5399 23.3401L12.0682 24.7136C12.0407 24.694 12.0133 24.6764 11.9849 24.6597Z" fill="#C7C7C7"/>
<path d="M12.0684 24.7134L16.5401 23.3398C16.5724 23.3624 16.6057 23.3869 16.6381 23.4124L12.1664 24.786C12.134 24.7595 12.1017 24.736 12.0684 24.7134Z" fill="#CCCCCC"/>
<path d="M12.1665 24.7857L16.6382 23.4121C16.6794 23.4445 16.7206 23.4807 16.7627 23.519L12.291 24.8925C12.2498 24.8543 12.2077 24.818 12.1665 24.7857Z" fill="#D1D1D1"/>
<path d="M12.291 24.8931L16.7627 23.5195C16.8235 23.5754 16.8833 23.6372 16.9441 23.7048L12.4724 25.0784C12.4116 25.0107 12.3508 24.949 12.291 24.8931Z" fill="#D6D6D6"/>
<path d="M12.4722 25.0777L16.9439 23.7041C16.9546 23.7168 16.9664 23.7286 16.9772 23.7414C17.3174 24.1335 17.6164 24.5708 17.9253 24.9953C18.5066 25.7963 19.0841 26.6012 19.6596 27.4071C19.789 27.5885 19.9126 27.7748 20.0312 27.964L15.5595 29.3376C15.4409 29.1474 15.3164 28.9621 15.1879 28.7807C14.6124 27.9748 14.035 27.1699 13.4536 26.3689C13.1447 25.9444 12.8457 25.5071 12.5055 25.1149C12.4947 25.1022 12.4839 25.0894 12.4722 25.0777Z" fill="#DBDBDB"/>
<path d="M15.5601 29.3374L20.0318 27.9639C20.0484 27.9903 20.0651 28.0178 20.0818 28.0443C20.1543 28.1629 20.2229 28.2835 20.2837 28.4041L15.812 29.7776C15.7512 29.6561 15.6836 29.5365 15.6101 29.4178C15.5934 29.3914 15.5777 29.3639 15.5601 29.3374Z" fill="#E0E0E0"/>
<path d="M15.8115 29.7788L20.2832 28.4053C20.3597 28.5592 20.4254 28.7151 20.4744 28.8749L16.0027 30.2485C15.9537 30.0887 15.889 29.9328 15.8115 29.7788Z" fill="#DBDBDB"/>
<path d="M16.0029 30.2476L20.4746 28.874C20.4942 28.9387 20.5109 29.0044 20.5256 29.0701L16.0539 30.4437C16.0392 30.378 16.0225 30.3123 16.0029 30.2476Z" fill="#D6D6D6"/>
<path d="M16.0527 30.4439L20.5244 29.0703C20.5342 29.1184 20.5431 29.1654 20.5499 29.2144L16.0782 30.588C16.0714 30.54 16.0635 30.4919 16.0527 30.4439Z" fill="#D1D1D1"/>
<path d="M16.0786 30.5884L20.5503 29.2148C20.5562 29.255 20.5601 29.2962 20.5631 29.3374L16.0914 30.711C16.0884 30.6698 16.0845 30.6286 16.0786 30.5884Z" fill="#CCCCCC"/>
<path d="M16.0913 30.7105L20.563 29.3369C20.5659 29.3732 20.5679 29.4095 20.5679 29.4467L16.0962 30.8203C16.0962 30.783 16.0942 30.7468 16.0913 30.7105Z" fill="#C7C7C7"/>
<path d="M16.0972 30.8208L20.5689 29.4473C20.5698 29.4806 20.5689 29.5149 20.5679 29.5492L16.0962 30.9228C16.0972 30.8885 16.0972 30.8542 16.0972 30.8208Z" fill="#C2C2C2"/>
<path d="M16.0962 30.9224L20.5679 29.5488C20.5669 29.5812 20.565 29.6145 20.562 29.6469L16.0894 31.0204C16.0923 30.9871 16.0943 30.9547 16.0962 30.9224Z" fill="#BDBDBD"/>
<path d="M16.0894 31.02L20.5611 29.6465C20.5581 29.6788 20.5542 29.7112 20.5503 29.7435L16.0786 31.1171C16.0835 31.0838 16.0865 31.0514 16.0894 31.02Z" fill="#B8B8B8"/>
<path d="M16.0782 31.1167L20.5499 29.7432C20.545 29.7755 20.5401 29.8079 20.5332 29.8412L16.0615 31.2148C16.0684 31.1824 16.0733 31.1491 16.0782 31.1167Z" fill="#B3B3B3"/>
<path d="M16.0616 31.2144L20.5333 29.8408C20.5264 29.8742 20.5196 29.9075 20.5108 29.9418L16.0391 31.3154C16.0479 31.2811 16.0557 31.2477 16.0616 31.2144Z" fill="#ADADAD"/>
<path d="M16.0391 31.316L20.5108 29.9424C20.5078 29.9532 20.5049 29.964 20.5029 29.9747L16.0312 31.3483C16.0342 31.3365 16.0371 31.3267 16.0391 31.316Z" fill="#A8A8A8"/>
<path d="M6.09277 1.39603L10.5645 0.0224609C10.639 0.0293239 10.7135 0.0371672 10.788 0.045991L6.31631 1.41956C6.2418 1.41073 6.16729 1.40289 6.09277 1.39603Z" fill="#9E9E9E"/>
<path d="M6.31592 1.41947L10.7876 0.0458984C10.9308 0.063546 11.0759 0.0860956 11.2229 0.113547L6.75221 1.48711C6.60514 1.45966 6.46004 1.43711 6.31592 1.41947Z" fill="#A3A3A3"/>
<path d="M6.75244 1.48685L11.224 0.113281C11.2564 0.119164 11.2878 0.125046 11.3201 0.131909C11.3682 0.141713 11.4172 0.152498 11.4652 0.164263L6.99264 1.53783C6.9446 1.52607 6.89656 1.51528 6.84754 1.50548C6.81617 1.49861 6.78381 1.49273 6.75244 1.48685Z" fill="#A8A8A8"/>
<path d="M6.99268 1.53861L11.4644 0.165039C11.5399 0.183667 11.6154 0.205236 11.6899 0.228766L7.21817 1.60233C7.14366 1.5788 7.06817 1.55723 6.99268 1.53861Z" fill="#ADADAD"/>
<path d="M7.21826 1.60208L11.69 0.228516C11.8233 0.270674 11.9566 0.318714 12.089 0.368716L7.61827 1.74228C7.48494 1.69228 7.35258 1.64424 7.21826 1.60208Z" fill="#B3B3B3"/>
<path d="M7.61816 1.74173L12.0889 0.369141C12.2281 0.422083 12.3673 0.476987 12.5075 0.529929L8.03582 1.9035C7.8966 1.85055 7.75738 1.79467 7.61816 1.74173Z" fill="#B8B8B8"/>
<path d="M8.03564 1.90384L12.5073 0.530273C12.5858 0.559686 12.6632 0.589099 12.7417 0.61655L8.27095 1.98914C8.19251 1.96169 8.11408 1.93325 8.03564 1.90384Z" fill="#B3B3B3"/>
<path d="M8.27148 1.9888L12.7432 0.615234C12.8961 0.7221 13.0481 0.827985 13.2001 0.934851L8.72836 2.30842C8.57541 2.20155 8.42345 2.09567 8.27148 1.9888Z" fill="#CCCCCC"/>
<path d="M6.09279 1.39565C6.33887 1.41722 6.59084 1.45349 6.84771 1.50546C7.32812 1.60154 7.79676 1.82409 8.2703 1.9888C8.42325 2.09567 8.57521 2.20155 8.72718 2.30842C9.30366 2.92314 9.35759 3.67022 9.25954 4.43593C9.06542 5.95852 8.85365 7.47915 8.6409 8.99782C8.60953 9.22724 8.54286 9.45175 8.47031 9.66745C8.24873 10.3233 7.81342 10.6283 7.17027 10.5724C6.68398 10.5234 6.22515 10.4684 5.76729 10.3959C5.73886 10.391 5.71043 10.3881 5.68297 10.3851C5.28198 10.3498 4.98295 10.5341 4.75844 10.8763C4.43686 11.3675 4.25842 11.9224 4.23784 12.5587C4.12411 16.1666 4.91923 19.604 6.46535 22.8913C6.78006 23.56 7.18007 24.1914 7.59087 24.7992C7.85166 25.1865 8.24187 25.4365 8.65659 25.5934C8.75169 25.6297 8.84581 25.6522 8.93797 25.66C9.13307 25.6767 9.31935 25.6287 9.49582 25.5071C9.84779 25.2649 10.2047 25.0326 10.5566 24.7924C10.887 24.5679 11.1939 24.4639 11.49 24.4904C11.8341 24.5208 12.1655 24.7247 12.5047 25.114C12.8449 25.5061 13.144 25.9434 13.4528 26.3679C14.0342 27.1689 14.6117 27.9738 15.1872 28.7797C15.3342 28.9866 15.4754 29.1994 15.6087 29.418C15.9754 30.0151 16.2195 30.6396 16.0303 31.3465C15.945 31.5092 15.8607 31.672 15.7754 31.8328C15.4725 32.1504 15.193 32.4985 14.8656 32.7789C13.7557 33.7299 12.5243 34.1701 11.1733 34.0524C10.7498 34.0152 10.3155 33.924 9.86838 33.7769C9.49386 33.6524 9.13601 33.4534 8.77031 33.2887C8.50658 33.1044 8.24383 32.9201 7.9801 32.7367C7.68793 32.4583 7.38694 32.1916 7.10556 31.9004C5.69474 30.4396 4.68981 28.6709 3.83782 26.7905C2.81721 24.5385 2.07307 22.1874 1.45835 19.7932C0.705385 16.8618 0.127918 13.9068 0.0171305 10.8969C-0.0436555 9.22528 0.0455626 7.57817 0.475967 6.00264C0.60146 5.5438 0.769112 5.10163 0.917156 4.65162C1.06422 4.37122 1.2103 4.09082 1.35638 3.80944C1.40344 3.75552 1.45541 3.70454 1.49658 3.64571C2.66818 1.94566 4.22019 1.2329 6.09279 1.39565Z" fill="white"/>
<path d="M8.72803 2.30814L13.1997 0.93457C13.2115 0.947316 13.2233 0.960061 13.235 0.972807L8.76332 2.34735C8.75156 2.33363 8.73979 2.32088 8.72803 2.30814Z" fill="#D6D6D6"/>
<path d="M8.76318 2.3472L13.2349 0.973633C13.3221 1.07167 13.3966 1.17266 13.4604 1.27658L8.98868 2.64917C8.92495 2.54525 8.85044 2.44426 8.76318 2.3472Z" fill="#DBDBDB"/>
<path d="M8.98877 2.64896L13.4605 1.27539C13.4899 1.32245 13.5163 1.37049 13.5399 1.41951L9.06818 2.79308C9.04465 2.74504 9.01818 2.697 8.98877 2.64896Z" fill="#E0E0E0"/>
<path d="M9.06836 2.79349L13.5401 1.41992C13.592 1.52385 13.6332 1.62973 13.6665 1.73758L9.19581 3.11115C9.16248 3.0033 9.12032 2.89741 9.06836 2.79349Z" fill="#DBDBDB"/>
<path d="M9.1958 3.11087L13.6675 1.7373C13.6861 1.80005 13.7028 1.8628 13.7155 1.92653L9.24384 3.30009C9.23012 3.23637 9.21443 3.17362 9.1958 3.11087Z" fill="#D6D6D6"/>
<path d="M9.24365 3.30033L13.7153 1.92676C13.7271 1.98264 13.7369 2.03951 13.7448 2.09637L9.27307 3.46994C9.26522 3.41307 9.25542 3.35621 9.24365 3.30033Z" fill="#D1D1D1"/>
<path d="M9.27344 3.47025L13.7451 2.09668C13.753 2.15256 13.7589 2.20747 13.7628 2.26433L9.29109 3.6379C9.28716 3.58103 9.28128 3.52515 9.27344 3.47025Z" fill="#CCCCCC"/>
<path d="M9.29102 3.63724L13.7627 2.26367C13.7666 2.3225 13.7696 2.38034 13.7706 2.44015L9.29886 3.81273C9.29788 3.75391 9.29494 3.69508 9.29102 3.63724Z" fill="#C7C7C7"/>
<path d="M9.29884 3.81302L13.7705 2.43945C13.7715 2.50416 13.7705 2.56887 13.7686 2.63358L9.29688 4.00714C9.29982 3.94244 9.29982 3.87773 9.29884 3.81302Z" fill="#C2C2C2"/>
<path d="M9.29693 4.00736L13.7686 2.63379C13.7657 2.70928 13.7608 2.78477 13.7539 2.86125L9.28223 4.23481C9.28909 4.15834 9.29399 4.08285 9.29693 4.00736Z" fill="#BDBDBD"/>
<path d="M9.28231 4.2349L13.754 2.86133C13.7481 2.928 13.7403 2.99467 13.7324 3.06231C13.5383 4.58491 13.3265 6.10554 13.1138 7.6242C13.1138 7.62617 13.1128 7.62911 13.1128 7.63107L8.64111 9.00464C8.64111 9.00267 8.64209 8.99973 8.64209 8.99777C8.85484 7.4791 9.06662 5.95847 9.26074 4.43588C9.26956 4.36823 9.27643 4.30156 9.28231 4.2349Z" fill="#B8B8B8"/>
<path d="M8.64071 9.00443L13.1124 7.63086C13.1065 7.674 13.0987 7.71616 13.0908 7.75831L8.61914 9.13286C8.62698 9.08972 8.63483 9.04757 8.64071 9.00443Z" fill="#B3B3B3"/>
<path d="M8.61928 9.13236L13.091 7.75879C13.0812 7.81075 13.0694 7.86271 13.0567 7.9137L8.58496 9.28726C8.59771 9.2353 8.60947 9.18432 8.61928 9.13236Z" fill="#ADADAD"/>
<path d="M8.5852 9.28763L13.0569 7.91406C13.0392 7.98661 13.0187 8.05818 12.9971 8.12877L8.52441 9.50234C8.54598 9.43175 8.56657 9.36018 8.5852 9.28763Z" fill="#A8A8A8"/>
<path d="M8.52422 9.50247L12.9959 8.12891C12.9792 8.18479 12.9606 8.23969 12.943 8.29362C12.9361 8.31421 12.9292 8.33479 12.9214 8.3544L8.44971 9.72797C8.45755 9.70836 8.46441 9.68777 8.47128 9.66718C8.48892 9.61326 8.50755 9.55836 8.52422 9.50247Z" fill="#A3A3A3"/>
<path d="M8.44988 9.72806L12.9216 8.35449C12.9078 8.39175 12.8931 8.42802 12.8775 8.46332L8.40576 9.83689C8.42145 9.80159 8.43615 9.76532 8.44988 9.72806Z" fill="#9E9E9E"/>
<path d="M8.40546 9.83646L12.8772 8.46289C12.8615 8.49819 12.8458 8.53152 12.8291 8.56387L8.35742 9.93744C8.37409 9.90509 8.39076 9.87175 8.40546 9.83646Z" fill="#999999"/>
<path d="M8.35763 9.93802L12.8292 8.56445C12.8116 8.59779 12.7939 8.63014 12.7753 8.66053L8.30371 10.0341C8.32234 10.0037 8.33999 9.97135 8.35763 9.93802Z" fill="#949494"/>
<path d="M8.30347 10.0337L12.7752 8.66016C12.7546 8.69349 12.733 8.72486 12.7114 8.75526L8.23975 10.1288C8.26132 10.0994 8.28288 10.0671 8.30347 10.0337Z" fill="#8F8F8F"/>
<path d="M8.24007 10.1294L12.7118 8.75586C12.6853 8.79115 12.6578 8.82547 12.6294 8.85684L8.15771 10.2294C8.18615 10.1981 8.2136 10.1647 8.24007 10.1294Z" fill="#8A8A8A"/>
<path d="M8.15759 10.23L12.6293 8.85645C12.4999 8.99763 12.345 9.09665 12.1655 9.15155L7.69385 10.5251C7.87326 10.4702 8.02817 10.3722 8.15759 10.23Z" fill="#858585"/>
<path d="M12.4819 10.3141L16.9536 8.94052C16.985 8.93072 17.0174 8.92287 17.0497 8.91699L12.578 10.2906C12.5466 10.2964 12.5143 10.3043 12.4819 10.3141Z" fill="#8A8A8A"/>
<path d="M12.5791 10.2896L17.0508 8.91606C17.0773 8.91116 17.1047 8.90724 17.1312 8.9043L12.6595 10.2779C12.632 10.2808 12.6056 10.2847 12.5791 10.2896Z" fill="#8F8F8F"/>
<path d="M12.6592 10.2779L17.1309 8.90431C17.1544 8.90235 17.1779 8.90039 17.2015 8.90039L12.7298 10.274C12.7062 10.2749 12.6827 10.2759 12.6592 10.2779Z" fill="#949494"/>
<path d="M12.73 10.274L17.2017 8.90039C17.2232 8.90039 17.2448 8.90039 17.2664 8.90137L12.7947 10.2749C12.7731 10.274 12.7515 10.274 12.73 10.274Z" fill="#999999"/>
<path d="M12.7949 10.2759L17.2666 8.90234C17.2764 8.90332 17.2862 8.90332 17.295 8.9043L12.8234 10.2779C12.8145 10.2769 12.8047 10.2759 12.7949 10.2759Z" fill="#9E9E9E"/>
<path d="M18.1867 25.5992L22.6583 24.2256C22.6476 24.2285 22.6368 24.2354 22.626 24.2403L18.1543 25.6139C18.1661 25.609 18.1759 25.6021 18.1867 25.5992Z" fill="#858585"/>
<path d="M15.1748 15.4214L19.6465 14.0479C19.6455 14.088 19.6445 14.1292 19.6436 14.1694L15.1719 15.543C15.1729 15.5028 15.1738 15.4626 15.1748 15.4214Z" fill="#C2C2C2"/>
<path d="M15.171 15.5425L19.6426 14.1689C19.6377 14.2905 19.6308 14.4121 19.62 14.5317L15.1484 15.9053C15.1592 15.7857 15.1671 15.6641 15.171 15.5425Z" fill="#BDBDBD"/>
<path d="M15.1481 15.9058L19.6198 14.5322C19.61 14.6469 19.5963 14.7607 19.5806 14.8734L15.1089 16.247C15.1246 16.1352 15.1383 16.0205 15.1481 15.9058Z" fill="#B8B8B8"/>
<path d="M15.1091 16.2476L19.5808 14.874C19.5651 14.9848 19.5465 15.0936 19.5259 15.2025L15.0542 16.576C15.0748 16.4672 15.0934 16.3574 15.1091 16.2476Z" fill="#B3B3B3"/>
<path d="M15.054 16.5767L19.5257 15.2031C19.5051 15.311 19.4806 15.4178 19.4551 15.5227L14.9834 16.8963C15.0089 16.7904 15.0324 16.6845 15.054 16.5767Z" fill="#ADADAD"/>
<path d="M14.9828 16.896L19.4545 15.5225C19.428 15.6283 19.3986 15.7342 19.3662 15.8382L14.8945 17.2117C14.9269 17.1078 14.9563 17.0029 14.9828 16.896Z" fill="#A8A8A8"/>
<path d="M14.8954 17.2124L19.3671 15.8389C19.3338 15.9457 19.2985 16.0516 19.2593 16.1565L14.7876 17.5301C14.8258 17.4252 14.8621 17.3193 14.8954 17.2124Z" fill="#A3A3A3"/>
<path d="M14.7876 17.5298L19.2593 16.1562C19.2191 16.2651 19.175 16.3729 19.1289 16.4798L14.6572 17.8534C14.7033 17.7465 14.7474 17.6386 14.7876 17.5298Z" fill="#9E9E9E"/>
<path d="M14.6569 17.854L19.1286 16.4805C19.0786 16.5952 19.0247 16.7079 18.9668 16.8197L14.4951 18.1933C14.552 18.0815 14.6059 17.9678 14.6569 17.854Z" fill="#999999"/>
<path d="M14.4954 18.1919L18.9671 16.8184C18.9034 16.9409 18.8348 17.0625 18.7622 17.1811L14.2905 18.5547C14.3631 18.4361 14.4317 18.3155 14.4954 18.1919Z" fill="#949494"/>
<path d="M14.2906 18.5552L18.7623 17.1816C18.677 17.3209 18.5858 17.4571 18.4888 17.5895L14.0171 18.9631C14.1142 18.8307 14.2053 18.6944 14.2906 18.5552Z" fill="#8F8F8F"/>
<path d="M14.0168 18.9634L18.4885 17.5898C18.361 17.7644 18.2228 17.933 18.0728 18.0957L13.6011 19.4693C13.7501 19.3066 13.8883 19.1369 14.0168 18.9634Z" fill="#8A8A8A"/>
<path d="M13.6011 19.4693L18.0728 18.0957C18.0394 18.133 18.0051 18.1692 17.9698 18.2055C17.8541 18.3261 17.7188 18.4085 17.5757 18.4526L13.104 19.8261C13.2471 19.782 13.3824 19.6997 13.4981 19.5791C13.5334 19.5428 13.5677 19.5055 13.6011 19.4693Z" fill="#858585"/>
<path d="M12.8242 10.2779L17.2959 8.9043C17.3067 8.90528 17.3175 8.90626 17.3273 8.90724L12.8556 10.2808C12.8448 10.2798 12.834 10.2788 12.8242 10.2779Z" fill="#9E9E9E"/>
<path d="M12.8555 10.2808L17.3272 8.90723C17.3468 8.90919 17.3654 8.91213 17.385 8.91605L12.9133 10.2896C12.8937 10.2857 12.8751 10.2828 12.8555 10.2808Z" fill="#A3A3A3"/>
<path d="M12.9136 10.2896L17.3853 8.91602C17.4039 8.91994 17.4225 8.92386 17.4412 8.92778L12.9695 10.3013C12.9508 10.2974 12.9322 10.2935 12.9136 10.2896Z" fill="#A8A8A8"/>
<path d="M12.9692 10.3023L17.4409 8.92871C17.4586 8.93361 17.4772 8.93852 17.4949 8.9444L13.0232 10.318C13.0055 10.3111 12.9869 10.3062 12.9692 10.3023Z" fill="#ADADAD"/>
<path d="M13.0229 10.3169L17.4946 8.94336C17.5123 8.94924 17.5299 8.95512 17.5476 8.96199L13.0759 10.3356C13.0582 10.3287 13.0406 10.3228 13.0229 10.3169Z" fill="#B3B3B3"/>
<path d="M13.0762 10.3355L17.5479 8.96191C17.5655 8.96878 17.5832 8.97564 17.6008 8.98348L13.1291 10.3571C13.1115 10.3492 13.0938 10.3423 13.0762 10.3355Z" fill="#B8B8B8"/>
<path d="M13.1289 10.357L17.6006 8.9834C17.6182 8.99124 17.6359 9.00007 17.6535 9.00889L13.1818 10.3825C13.1642 10.3736 13.1466 10.3648 13.1289 10.357Z" fill="#BDBDBD"/>
<path d="M13.1821 10.3833L17.6538 9.00977C17.6715 9.01957 17.6901 9.02937 17.7077 9.03918L13.2361 10.4127C13.2174 10.4029 13.1998 10.3931 13.1821 10.3833Z" fill="#C2C2C2"/>
<path d="M13.2349 10.4126L17.7066 9.04004C17.7252 9.05082 17.7438 9.06259 17.7615 9.07533L13.2898 10.4489C13.2721 10.4362 13.2535 10.4244 13.2349 10.4126Z" fill="#C7C7C7"/>
<path d="M13.2896 10.4478L17.7612 9.07422C17.7809 9.08794 17.7995 9.10167 17.8191 9.11638L13.3474 10.4909C13.3288 10.4752 13.3092 10.4615 13.2896 10.4478Z" fill="#CCCCCC"/>
<path d="M13.3477 10.4908L17.8193 9.11719C17.8409 9.13385 17.8615 9.15248 17.8821 9.17111L13.4104 10.5447C13.3898 10.5251 13.3692 10.5074 13.3477 10.4908Z" fill="#D1D1D1"/>
<path d="M13.4102 10.5445L17.8818 9.1709C17.9073 9.19443 17.9319 9.21894 17.9554 9.24541L13.4837 10.619C13.4602 10.5925 13.4356 10.567 13.4102 10.5445Z" fill="#D6D6D6"/>
<path d="M13.4839 10.6187L17.9556 9.24512C17.9585 9.24904 17.9624 9.25296 17.9654 9.25688C18.184 9.50787 18.3811 9.7765 18.5576 10.0598L14.0859 11.4334C13.9094 11.1501 13.7123 10.8814 13.4937 10.6304C13.4908 10.6265 13.4878 10.6226 13.4839 10.6187Z" fill="#DBDBDB"/>
<path d="M14.0869 11.4341L18.5586 10.0605C18.6733 10.2439 18.7782 10.4341 18.8763 10.6292L14.4046 12.0028C14.3065 11.8077 14.2006 11.6175 14.0869 11.4341Z" fill="#E0E0E0"/>
<path d="M14.4048 12.0025L18.8765 10.6289C18.9206 10.7162 18.9618 10.8044 19.003 10.8936C19.1304 11.175 19.2383 11.4603 19.3275 11.7515L14.8558 13.1251C14.7666 12.8329 14.6587 12.5476 14.5313 12.2672C14.4901 12.178 14.4479 12.0897 14.4048 12.0025Z" fill="#DBDBDB"/>
<path d="M14.8555 13.1265L19.3272 11.7529C19.387 11.948 19.437 12.1461 19.4801 12.348L15.0084 13.7216C14.9653 13.5187 14.9143 13.3206 14.8555 13.1265Z" fill="#D6D6D6"/>
<path d="M15.0073 13.7212L19.479 12.3477C19.5143 12.5153 19.5437 12.6849 19.5682 12.8594L15.0965 14.233C15.073 14.0585 15.0426 13.8879 15.0073 13.7212Z" fill="#D1D1D1"/>
<path d="M15.0967 14.232L19.5684 12.8584C19.5909 13.0202 19.6086 13.1849 19.6203 13.3535L15.1486 14.7271C15.1359 14.5584 15.1192 14.3937 15.0967 14.232Z" fill="#CCCCCC"/>
<path d="M15.1489 14.7271L19.6206 13.3535C19.6334 13.5212 19.6412 13.6927 19.6441 13.8682L15.1725 15.2418C15.1695 15.0663 15.1617 14.8947 15.1489 14.7271Z" fill="#C7C7C7"/>
<path d="M15.1724 15.2417L19.6441 13.8682C19.645 13.928 19.646 13.9888 19.646 14.0495L15.1743 15.4231C15.1743 15.3613 15.1733 15.3015 15.1724 15.2417Z" fill="#C2C2C2"/>
<path d="M12.8247 10.277C13.0688 10.2985 13.31 10.4182 13.4953 10.6299C13.9198 11.1162 14.26 11.6672 14.5316 12.2672C14.9669 13.229 15.1757 14.233 15.1747 15.4222C15.1443 16.9997 14.5943 18.439 13.4982 19.5802C13.2943 19.7929 13.0296 19.8851 12.7658 19.8625C12.5149 19.841 12.2649 19.7145 12.0697 19.487C11.6737 19.0262 11.656 18.3223 12.0482 17.9076C12.557 17.3683 12.9178 16.7281 13.0629 15.9418C13.3119 14.5967 13.0208 13.3604 12.1854 12.2486C12.0286 12.0398 11.8815 11.8339 11.8286 11.5652C11.7335 11.0819 11.9237 10.6044 12.3041 10.3897C12.4649 10.2976 12.6453 10.2613 12.8247 10.277Z" fill="white"/>
<path d="M15.1079 7.6969L19.5796 6.32333C19.611 6.31353 19.6433 6.30569 19.6757 6.2998L15.204 7.67337C15.1716 7.67925 15.1393 7.6871 15.1079 7.6969Z" fill="#8A8A8A"/>
<path d="M15.2041 7.67244L19.6758 6.29887C19.7023 6.29397 19.7287 6.29005 19.7562 6.28711L15.2845 7.66068C15.257 7.66362 15.2306 7.66754 15.2041 7.67244Z" fill="#8F8F8F"/>
<path d="M15.2837 7.66167L19.7554 6.2881C19.7789 6.28614 19.8024 6.28418 19.826 6.28418L15.3543 7.65775C15.3308 7.65775 15.3072 7.65873 15.2837 7.66167Z" fill="#949494"/>
<path d="M15.354 7.65775L19.8257 6.28418C19.8473 6.28418 19.8688 6.28418 19.8904 6.28516L15.4187 7.65873C15.3971 7.65775 15.3756 7.65677 15.354 7.65775Z" fill="#999999"/>
<path d="M15.4189 7.65872L19.8906 6.28516C19.9004 6.28614 19.9102 6.28614 19.9191 6.28712L15.4474 7.66068C15.4386 7.6597 15.4287 7.65872 15.4189 7.65872Z" fill="#9E9E9E"/>
<path d="M18.8545 15.4136L23.3262 14.04C23.3243 14.1263 23.3223 14.2116 23.3193 14.2959L18.8477 15.6695C18.8506 15.5852 18.8526 15.4999 18.8545 15.4136Z" fill="#C2C2C2"/>
<path d="M18.8478 15.6695L23.3195 14.2959C23.3097 14.5537 23.294 14.8067 23.2725 15.0557L18.8008 16.4293C18.8224 16.1803 18.838 15.9273 18.8478 15.6695Z" fill="#BDBDBD"/>
<path d="M18.7996 16.4292L23.2713 15.0557C23.2507 15.2841 23.2252 15.5096 23.1939 15.7302L18.7222 17.1038C18.7535 16.8822 18.78 16.6577 18.7996 16.4292Z" fill="#B8B8B8"/>
<path d="M18.7226 17.1031L23.1943 15.7295C23.1649 15.9373 23.1305 16.1413 23.0913 16.3413L18.6196 17.7148C18.6588 17.5148 18.6932 17.3109 18.7226 17.1031Z" fill="#B3B3B3"/>
<path d="M18.6201 17.7154L23.0918 16.3418C23.0536 16.5359 23.0114 16.7261 22.9653 16.9144L18.4937 18.2879C18.5397 18.0997 18.5819 17.9095 18.6201 17.7154Z" fill="#ADADAD"/>
<path d="M18.4928 18.2876L22.9645 16.9141C22.9184 17.0984 22.8674 17.2807 22.8125 17.4592L18.3408 18.8327C18.3967 18.6533 18.4467 18.4719 18.4928 18.2876Z" fill="#A8A8A8"/>
<path d="M18.342 18.8326L22.8136 17.459C22.7587 17.6384 22.6989 17.8159 22.6342 17.9894L18.1626 19.363C18.2263 19.1894 18.2861 19.013 18.342 18.8326Z" fill="#A3A3A3"/>
<path d="M18.1625 19.3628L22.6342 17.9893C22.5675 18.1687 22.4969 18.3452 22.4204 18.5177L17.9487 19.8913C18.0242 19.7187 18.0958 19.5422 18.1625 19.3628Z" fill="#9E9E9E"/>
<path d="M17.9488 19.8921L22.4205 18.5186C22.3401 18.7019 22.2538 18.8823 22.1626 19.0597L17.6909 20.4333C17.7821 20.2559 17.8674 20.0755 17.9488 19.8921Z" fill="#999999"/>
<path d="M17.6902 20.4322L22.1619 19.0586C22.061 19.2547 21.9521 19.4468 21.8374 19.6341L17.3657 21.0077C17.4814 20.8204 17.5893 20.6282 17.6902 20.4322Z" fill="#949494"/>
<path d="M17.3655 21.0083L21.8372 19.6348C21.7019 19.8554 21.5577 20.0701 21.4048 20.2789L16.9331 21.6525C17.087 21.4427 17.2312 21.2279 17.3655 21.0083Z" fill="#8F8F8F"/>
<path d="M16.9328 21.6529L21.4045 20.2793C21.2005 20.5577 20.979 20.8274 20.7417 21.0872L16.27 22.4607C16.5073 22.2009 16.7289 21.9313 16.9328 21.6529Z" fill="#8A8A8A"/>
<path d="M16.2703 22.4605L20.742 21.0869C20.6881 21.1467 20.6322 21.2055 20.5763 21.2634C20.4508 21.3948 20.3126 21.485 20.1646 21.5301L15.6929 22.9036C15.8409 22.8585 15.9792 22.7683 16.1046 22.637C16.1605 22.5791 16.2164 22.5203 16.2703 22.4605Z" fill="#858585"/>
<path d="M15.4482 7.66078C15.6953 7.68235 15.9394 7.8049 16.1247 8.02059C16.6551 8.63826 17.1051 9.32161 17.4914 10.054C18.1591 11.3207 18.5836 12.6668 18.7542 14.0874C18.814 14.5904 18.8326 15.0953 18.8552 15.4139C18.7954 18.417 17.8963 20.7709 16.1051 22.6377C15.8963 22.8563 15.6541 22.9592 15.3855 22.9357C15.2884 22.9269 15.1874 22.9024 15.0835 22.8592C14.706 22.7053 14.4668 22.3955 14.3835 21.9612C14.3051 21.5514 14.4129 21.2092 14.6737 20.9386C14.9943 20.6062 15.2865 20.2454 15.5433 19.8484C16.1404 18.9268 16.5277 17.8954 16.71 16.7532C16.8198 16.062 16.8502 15.36 16.7894 14.6482C16.6296 12.7688 15.9718 11.0932 14.8119 9.6324C14.6492 9.42749 14.506 9.21965 14.4521 8.95101C14.3551 8.46668 14.5492 7.98432 14.9325 7.7696C15.0933 7.68137 15.2717 7.64509 15.4482 7.66078Z" fill="white"/>
<path d="M15.4482 7.66068L19.9199 6.28711C19.9307 6.28809 19.9415 6.28907 19.9523 6.29005L15.4806 7.66362C15.4698 7.66264 15.459 7.66166 15.4482 7.66068Z" fill="#9E9E9E"/>
<path d="M15.4795 7.66361L19.9512 6.29004C19.9708 6.292 19.9894 6.29494 20.009 6.29886L15.5373 7.67243C15.5187 7.66949 15.4991 7.66655 15.4795 7.66361Z" fill="#A3A3A3"/>
<path d="M15.5376 7.6724L20.0093 6.29883C20.0279 6.30275 20.0465 6.30667 20.0652 6.31059L15.5935 7.68416C15.5749 7.68024 15.5562 7.67632 15.5376 7.6724Z" fill="#A8A8A8"/>
<path d="M15.5933 7.68509L20.065 6.31152C20.0836 6.31643 20.1012 6.32133 20.1189 6.32721L15.6482 7.6998C15.6295 7.6949 15.6119 7.68999 15.5933 7.68509Z" fill="#ADADAD"/>
<path d="M15.6484 7.69974L20.1201 6.32617C20.1378 6.33205 20.1554 6.33794 20.1731 6.3448L15.7014 7.71837C15.6837 7.7115 15.6661 7.70562 15.6484 7.69974Z" fill="#B3B3B3"/>
<path d="M15.7012 7.71829L20.1729 6.34473C20.1905 6.35159 20.2082 6.35845 20.2258 6.3663L15.7541 7.73986C15.7365 7.733 15.7188 7.72516 15.7012 7.71829Z" fill="#B8B8B8"/>
<path d="M15.7539 7.74076L20.2256 6.36719C20.2432 6.37503 20.2609 6.38385 20.2785 6.39268L15.8068 7.76625C15.7892 7.75644 15.7716 7.7486 15.7539 7.74076Z" fill="#BDBDBD"/>
<path d="M15.8071 7.76517L20.2788 6.3916C20.2965 6.40141 20.3151 6.41121 20.3327 6.42101L15.8611 7.79458C15.8424 7.78478 15.8248 7.77497 15.8071 7.76517Z" fill="#C2C2C2"/>
<path d="M15.8599 7.79544L20.3316 6.42188C20.3502 6.43266 20.3688 6.44442 20.3865 6.45717L15.9148 7.83074C15.8971 7.81799 15.8785 7.80623 15.8599 7.79544Z" fill="#C7C7C7"/>
<path d="M15.915 7.8306L20.3867 6.45703C20.4063 6.47076 20.425 6.48448 20.4446 6.49919L15.9729 7.87276C15.9543 7.85805 15.9346 7.84432 15.915 7.8306Z" fill="#CCCCCC"/>
<path d="M15.9727 7.87357L20.4443 6.5C20.4659 6.51667 20.4865 6.53431 20.5071 6.55392L16.0354 7.92749C16.0148 7.90886 15.9942 7.89023 15.9727 7.87357Z" fill="#D1D1D1"/>
<path d="M16.0356 7.92728L20.5073 6.55371C20.5328 6.57724 20.5573 6.60175 20.5809 6.62822L16.1092 8.00179C16.0856 7.97532 16.0602 7.95081 16.0356 7.92728Z" fill="#D6D6D6"/>
<path d="M16.1089 8.0015L20.5806 6.62793C20.5855 6.63381 20.5914 6.63969 20.5963 6.64558C20.9384 7.04461 21.2482 7.47109 21.5286 7.9211L17.057 9.29467C16.7766 8.84564 16.4677 8.41818 16.1246 8.01915C16.1197 8.01326 16.1138 8.00738 16.1089 8.0015Z" fill="#DBDBDB"/>
<path d="M17.0571 9.29544L21.5288 7.92188C21.6818 8.16796 21.8269 8.42091 21.9631 8.67974C22.0024 8.75327 22.0396 8.8268 22.0769 8.90131L17.6052 10.2749C17.5679 10.2004 17.5297 10.1268 17.4915 10.0533C17.3542 9.79448 17.2101 9.54153 17.0571 9.29544Z" fill="#E0E0E0"/>
<path d="M17.6055 10.2749L22.0772 8.90137C22.3742 9.49354 22.6184 10.1024 22.8086 10.7289L18.3369 12.1024C18.1467 11.4759 17.9016 10.8671 17.6055 10.2749Z" fill="#DBDBDB"/>
<path d="M18.3364 12.1021L22.8081 10.7285C22.9062 11.0491 22.9895 11.3746 23.0591 11.704L18.5874 13.0776C18.5178 12.7482 18.4345 12.4237 18.3364 12.1021Z" fill="#D6D6D6"/>
<path d="M18.5874 13.0786L23.0591 11.7051C23.115 11.9698 23.1611 12.2374 23.1983 12.508L18.7266 13.8816C18.6894 13.611 18.6433 13.3434 18.5874 13.0786Z" fill="#D1D1D1"/>
<path d="M18.7266 13.8814L23.1983 12.5078C23.2081 12.5764 23.2169 12.6451 23.2247 12.7147C23.2463 12.8941 23.262 13.0745 23.2757 13.2461L18.804 14.6196C18.7913 14.4481 18.7746 14.2677 18.753 14.0882C18.7452 14.0186 18.7364 13.95 18.7266 13.8814Z" fill="#CCCCCC"/>
<path d="M18.8042 14.6197L23.2759 13.2461C23.2994 13.5549 23.3122 13.8363 23.3269 14.0402L18.8552 15.4138C18.8405 15.2089 18.8277 14.9275 18.8042 14.6197Z" fill="#C7C7C7"/>
<path d="M17.7935 5.50465L22.2652 4.13108C22.3436 4.10755 22.425 4.09382 22.5044 4.0752L18.0327 5.44876C17.9533 5.46837 17.8719 5.48112 17.7935 5.50465Z" fill="#8A8A8A"/>
<path d="M18.0322 5.44974L22.5039 4.07617C22.5794 4.08303 22.6559 4.08892 22.7304 4.09578L18.2587 5.46935C18.1842 5.46248 18.1077 5.45562 18.0322 5.44974Z" fill="#9E9E9E"/>
<path d="M22.4424 16.3511L26.9141 14.9775C26.9102 15.003 26.9053 15.0285 26.9014 15.054L22.4297 16.4276C22.4336 16.4021 22.4385 16.3766 22.4424 16.3511Z" fill="#B3B3B3"/>
<path d="M22.4297 16.4273L26.9014 15.0537C26.9004 15.0625 26.8994 15.0723 26.8985 15.0812L22.4268 16.4547C22.4277 16.4459 22.4287 16.4361 22.4297 16.4273Z" fill="#B8B8B8"/>
<path d="M22.4265 16.4546L26.8982 15.0811C26.8972 15.0869 26.8972 15.0928 26.8972 15.0987C26.8874 15.3477 26.8717 15.5958 26.8491 15.8419L22.3774 17.2154C22.399 16.9693 22.4157 16.7213 22.4255 16.4723C22.4255 16.4664 22.4255 16.4605 22.4265 16.4546Z" fill="#BDBDBD"/>
<path d="M22.3778 17.2154L26.8495 15.8418C26.8279 16.0869 26.7995 16.331 26.7651 16.5742L22.2935 17.9477C22.3278 17.7046 22.3562 17.4615 22.3778 17.2154Z" fill="#B8B8B8"/>
<path d="M22.2929 17.9478L26.7646 16.5742C26.7313 16.8076 26.6931 17.0389 26.648 17.2693L22.1763 18.6429C22.2214 18.4125 22.2596 18.1811 22.2929 17.9478Z" fill="#B3B3B3"/>
<path d="M22.1764 18.6431L26.6481 17.2695C26.6315 17.3568 26.6128 17.445 26.5942 17.5313C26.5589 17.696 26.5207 17.8588 26.4805 18.0196L22.0088 19.3931C22.049 19.2323 22.0872 19.0696 22.1225 18.9049C22.1411 18.8176 22.1598 18.7304 22.1764 18.6431Z" fill="#ADADAD"/>
<path d="M22.0086 19.3931L26.4803 18.0195C26.4156 18.2764 26.346 18.5293 26.2695 18.7784L21.7979 20.1519C21.8743 19.9029 21.9449 19.6509 22.0086 19.3931Z" fill="#A8A8A8"/>
<path d="M21.7979 20.1519L26.2695 18.7783C26.1931 19.0283 26.1097 19.2734 26.0205 19.5146L21.5488 20.8882C21.638 20.647 21.7214 20.4019 21.7979 20.1519Z" fill="#A3A3A3"/>
<path d="M21.549 20.8892L26.0207 19.5156C25.9285 19.7637 25.8305 20.0068 25.7256 20.2451L21.2539 21.6186C21.3588 21.3794 21.4569 21.1363 21.549 20.8892Z" fill="#9E9E9E"/>
<path d="M21.2538 21.6187L25.7255 20.2451C25.6147 20.4971 25.4971 20.7432 25.3726 20.9853L20.9009 22.3589C21.0264 22.1167 21.144 21.8707 21.2538 21.6187Z" fill="#999999"/>
<path d="M20.9011 22.3589L25.3728 20.9854C25.2356 21.2501 25.0895 21.5089 24.9356 21.7618L20.4639 23.1354C20.6188 22.8825 20.7639 22.6236 20.9011 22.3589Z" fill="#949494"/>
<path d="M20.4637 23.1353L24.9354 21.7617C24.7559 22.0539 24.5657 22.3392 24.3638 22.6147L19.8921 23.9883C20.0941 23.7118 20.2843 23.4275 20.4637 23.1353Z" fill="#8F8F8F"/>
<path d="M19.891 23.9888L24.3627 22.6152C24.1 22.9731 23.8176 23.3182 23.5156 23.6486L19.0439 25.0222C19.3469 24.6918 19.6293 24.3476 19.891 23.9888Z" fill="#8A8A8A"/>
<path d="M19.0451 25.023L23.5168 23.6494C23.4315 23.7426 23.3452 23.8337 23.258 23.9249C23.1364 24.0504 23.0011 24.1416 22.8452 24.1886L18.3735 25.5622C18.5294 25.5142 18.6647 25.424 18.7863 25.2985C18.8735 25.2073 18.9598 25.1151 19.0451 25.023Z" fill="#858585"/>
<path d="M22.4473 15.4693L26.919 14.0957C26.917 14.3888 26.916 14.683 26.9141 14.9771L22.4424 16.3507C22.4443 16.0565 22.4453 15.7624 22.4473 15.4693Z" fill="#C2C2C2"/>
<path d="M18.2598 5.46927L22.7315 4.0957C22.7324 4.0957 22.7334 4.09668 22.7344 4.09668L18.2617 5.47025C18.2607 5.46927 18.2607 5.46927 18.2598 5.46927Z" fill="#B8B8B8"/>
<path d="M18.2627 5.47025L22.7344 4.09668C22.7413 4.09962 22.7481 4.10354 22.755 4.10648L18.2843 5.48005C18.2774 5.47711 18.2696 5.47319 18.2627 5.47025Z" fill="#BDBDBD"/>
<path d="M18.2832 5.48001L22.7549 4.10645C22.7549 4.10645 22.7559 4.10645 22.7559 4.10743L18.2842 5.48099C18.2832 5.48099 18.2832 5.48099 18.2832 5.48001Z" fill="#C2C2C2"/>
<path d="M18.2842 5.48099L22.7559 4.10742C22.7627 4.11134 22.7696 4.11428 22.7755 4.11723L18.3038 5.49079C18.2969 5.48785 18.291 5.48393 18.2842 5.48099Z" fill="#BDBDBD"/>
<path d="M18.3037 5.49075L22.7754 4.11719C22.7783 4.11817 22.7813 4.11915 22.7842 4.12111L18.3125 5.49468C18.3096 5.49272 18.3067 5.49174 18.3037 5.49075Z" fill="#B8B8B8"/>
<path d="M18.313 5.49466L22.7847 4.12109C22.7866 4.12207 22.7886 4.12305 22.7906 4.12305L18.3189 5.49662C18.3169 5.49564 18.3149 5.49466 18.313 5.49466Z" fill="#B3B3B3"/>
<path d="M18.3188 5.49661L22.7905 4.12305H22.7915C22.7964 4.12501 22.8013 4.12599 22.8072 4.12795L18.3355 5.50152C18.3306 5.49956 18.3257 5.49858 18.3198 5.49661H18.3188Z" fill="#ADADAD"/>
<path d="M18.3354 5.5015L22.8071 4.12793C22.8277 4.13479 22.8483 4.14166 22.8689 4.1495L18.3972 5.52307C18.3766 5.51522 18.356 5.50836 18.3354 5.5015Z" fill="#B3B3B3"/>
<path d="M18.397 5.52298L22.8687 4.14941C22.8883 4.15726 22.9079 4.1651 22.9265 4.17294L18.4548 5.54651C18.4352 5.53769 18.4166 5.52984 18.397 5.52298Z" fill="#B8B8B8"/>
<path d="M18.4551 5.54642L22.9268 4.17285C22.9454 4.18168 22.965 4.1905 22.9827 4.2003L18.511 5.57387C18.4923 5.56407 18.4737 5.55524 18.4551 5.54642Z" fill="#BDBDBD"/>
<path d="M18.5107 5.57376L22.9824 4.2002C23.0011 4.21 23.0197 4.22078 23.0383 4.23157L18.5666 5.60514C18.548 5.59337 18.5304 5.58357 18.5107 5.57376Z" fill="#C2C2C2"/>
<path d="M18.5669 5.60404L23.0386 4.23047C23.0572 4.24223 23.0768 4.254 23.0945 4.26674L18.6228 5.64031C18.6051 5.62757 18.5865 5.6158 18.5669 5.60404Z" fill="#C7C7C7"/>
<path d="M18.6226 5.64017L23.0943 4.2666C23.1139 4.28033 23.1335 4.29503 23.1531 4.30974L18.6814 5.68331C18.6628 5.6686 18.6431 5.6539 18.6226 5.64017Z" fill="#CCCCCC"/>
<path d="M18.6816 5.68411L23.1533 4.31055C23.1749 4.32819 23.1965 4.34584 23.218 4.36545L18.7463 5.74C18.7248 5.72039 18.7042 5.70176 18.6816 5.68411Z" fill="#D1D1D1"/>
<path d="M18.7461 5.73978L23.2178 4.36621C23.2443 4.39072 23.2698 4.41719 23.2952 4.44464L18.8235 5.81821C18.7981 5.79076 18.7726 5.76429 18.7461 5.73978Z" fill="#D6D6D6"/>
<path d="M18.8237 5.8179L23.2954 4.44434C23.3062 4.4561 23.316 4.46787 23.3258 4.47963C23.7729 5.01886 24.1817 5.58456 24.5504 6.17674L20.0787 7.5503C19.71 6.95715 19.3012 6.39145 18.8541 5.8532C18.8443 5.84143 18.8335 5.82967 18.8237 5.8179Z" fill="#DBDBDB"/>
<path d="M20.0786 7.55033L24.5503 6.17676C24.7974 6.57383 25.0268 6.98266 25.2376 7.40326L20.7659 8.77781C20.5551 8.35623 20.3257 7.9474 20.0786 7.55033Z" fill="#E0E0E0"/>
<path d="M20.7656 8.77786L25.2373 7.4043C25.4452 7.81901 25.6354 8.2455 25.8079 8.68374C25.9668 9.0867 26.1089 9.49357 26.2334 9.90339L21.7617 11.277C21.6372 10.8671 21.4951 10.4603 21.3362 10.0573C21.1637 9.61808 20.9735 9.1916 20.7656 8.77786Z" fill="#DBDBDB"/>
<path d="M21.7617 11.2769L26.2334 9.90332C26.3677 10.3445 26.4824 10.7886 26.5766 11.2377L22.1049 12.6112C22.0107 12.1622 21.896 11.7171 21.7617 11.2769Z" fill="#D6D6D6"/>
<path d="M22.105 12.6109L26.5768 11.2373C26.6513 11.5922 26.714 11.9491 26.7631 12.3089L22.2913 13.6825C22.2422 13.3227 22.1795 12.9658 22.105 12.6109Z" fill="#D1D1D1"/>
<path d="M22.2915 13.6822L26.7632 12.3086C26.8063 12.6243 26.8406 12.9419 26.8642 13.2616L22.3925 14.6351C22.369 14.3155 22.3356 13.9979 22.2915 13.6822Z" fill="#CCCCCC"/>
<path d="M22.3931 14.6353L26.8638 13.2617C26.8726 13.3823 26.8804 13.5029 26.8863 13.6245C26.8942 13.7823 26.9069 13.9392 26.9177 14.0961L22.446 15.4696C22.4352 15.3128 22.4225 15.1559 22.4146 14.998C22.4097 14.8765 22.4019 14.7559 22.3931 14.6353Z" fill="#C7C7C7"/>
<path d="M18.2599 5.4698C18.2805 5.47863 18.3001 5.49137 18.3207 5.49726C18.5266 5.55902 18.706 5.67569 18.855 5.85413C19.8962 7.10906 20.7286 8.5091 21.3375 10.0582C21.9659 11.6523 22.3296 13.2994 22.4169 14.9985C22.4247 15.1563 22.4375 15.3132 22.4483 15.4701C22.4463 15.7632 22.4453 16.0574 22.4434 16.3515C22.4365 16.3917 22.4277 16.4319 22.4267 16.4731C22.3944 17.2995 22.2953 18.1113 22.1238 18.9055C21.5796 21.432 20.4678 23.5634 18.7864 25.2988C18.6217 25.4704 18.4295 25.5762 18.1962 25.5978C18.1825 25.5988 18.1687 25.6086 18.154 25.6145C18.0785 25.6076 18.0021 25.6017 17.9276 25.5949C17.8638 25.5704 17.8001 25.5478 17.7374 25.5204C17.0354 25.2155 16.803 24.2341 17.2962 23.6625C17.5962 23.3144 17.9129 22.9821 18.1923 22.6134C19.1913 21.2957 19.8482 19.7692 20.1845 18.0515C20.3698 17.1064 20.4453 16.1426 20.4012 15.1613C20.2865 12.5837 19.5041 10.2337 18.0325 8.12576C17.8246 7.82771 17.5913 7.55123 17.3766 7.26103C16.9236 6.64925 17.1119 5.76393 17.7442 5.52275C17.8364 5.48745 17.9364 5.47274 18.0325 5.4502C18.108 5.45608 18.1844 5.46294 18.2599 5.4698Z" fill="white"/>
</svg>
