<svg width="33" height="34" viewBox="0 0 33 34" fill="none" xmlns="http://www.w3.org/2000/svg">
<path d="M12.7041 23.1687L16.1072 22.2256C16.0811 22.2327 16.0609 22.2446 16.0442 22.2624L12.6411 23.2055C12.6577 23.1877 12.6779 23.1758 12.7041 23.1687Z" fill="#858585"/>
<path d="M12.6409 23.2058L16.044 22.2627C16.0404 22.2663 16.038 22.2698 16.0345 22.2734L12.6313 23.2165C12.6337 23.213 12.6373 23.2094 12.6409 23.2058Z" fill="#8A8A8A"/>
<path d="M12.6314 23.2166L16.0346 22.2734C16.0322 22.2758 16.0298 22.2794 16.0286 22.2829L12.6255 23.2261C12.6267 23.2225 12.6291 23.2189 12.6314 23.2166Z" fill="#8F8F8F"/>
<path d="M12.6246 23.2254L16.0277 22.2822C16.0253 22.2858 16.0242 22.2882 16.0218 22.2917L12.6187 23.2349C12.621 23.2313 12.6234 23.2277 12.6246 23.2254Z" fill="#949494"/>
<path d="M12.6195 23.2351L16.0226 22.292C16.0214 22.2956 16.0191 22.2979 16.0179 22.3015L12.6147 23.2446C12.6159 23.2411 12.6171 23.2375 12.6195 23.2351Z" fill="#999999"/>
<path d="M12.6151 23.2439L16.0182 22.3008C16.017 22.3043 16.0159 22.3067 16.0135 22.3103L12.6104 23.2534C12.6115 23.251 12.6127 23.2475 12.6151 23.2439Z" fill="#9E9E9E"/>
<path d="M12.61 23.2547L16.0131 22.3115C16.0119 22.3151 16.0108 22.3186 16.0096 22.3222L12.6064 23.2653C12.6076 23.2606 12.6088 23.2582 12.61 23.2547Z" fill="#A3A3A3"/>
<path d="M12.6066 23.2654L16.0097 22.3223C16.0085 22.3258 16.0073 22.3294 16.0062 22.3341L12.603 23.2773C12.6042 23.2725 12.6054 23.269 12.6066 23.2654Z" fill="#A8A8A8"/>
<path d="M12.6027 23.2761L16.0058 22.333C16.0046 22.3378 16.0034 22.3413 16.0022 22.3461L12.5991 23.2892C12.6003 23.2856 12.6015 23.2809 12.6027 23.2761Z" fill="#ADADAD"/>
<path d="M12.5993 23.2888L16.0024 22.3457C16.0012 22.3505 16 22.3552 15.9988 22.3611L12.5957 23.3043C12.5969 23.2995 12.5981 23.2936 12.5993 23.2888Z" fill="#B3B3B3"/>
<path d="M12.5958 23.3045L15.999 22.3613C15.9978 22.3673 15.9966 22.3732 15.9954 22.3791L12.5923 23.3223C12.5935 23.3163 12.5947 23.3104 12.5958 23.3045Z" fill="#B8B8B8"/>
<path d="M12.5924 23.322L15.9956 22.3789C15.9944 22.386 15.9932 22.3932 15.992 22.4015L12.5889 23.3446C12.5901 23.3363 12.5912 23.3292 12.5924 23.322Z" fill="#BDBDBD"/>
<path d="M12.5888 23.3445L15.9919 22.4014C15.9907 22.4109 15.9895 22.4204 15.9895 22.4299L12.5864 23.373C12.5876 23.3635 12.5888 23.354 12.5888 23.3445Z" fill="#C2C2C2"/>
<path d="M12.5864 23.3728L15.9895 22.4297C15.9883 22.4428 15.9883 22.4558 15.9871 22.4701L12.584 23.4132C12.5852 23.399 12.5852 23.3859 12.5864 23.3728Z" fill="#C7C7C7"/>
<path d="M12.584 23.4138L15.9871 22.4707C15.9859 22.4909 15.9859 22.5123 15.9871 22.536L12.584 23.4792C12.584 23.4554 12.584 23.434 12.584 23.4138Z" fill="#CCCCCC"/>
<path d="M12.584 23.4793L15.9871 22.5361C15.9871 22.5409 15.9871 22.5456 15.9871 22.5516C16.0465 25.4772 16.0952 28.404 16.1475 31.3284C16.1498 31.465 16.1522 31.6016 16.1558 31.7822L12.7527 32.7253C12.7491 32.5448 12.7467 32.4082 12.7443 32.2716C12.6921 29.3459 12.6434 26.4203 12.584 23.4947C12.584 23.4888 12.584 23.484 12.584 23.4793Z" fill="#D1D1D1"/>
<path d="M14.5416 5.30251L17.9447 4.35938C17.9067 4.37007 17.8675 4.39857 17.8235 4.4449L14.4204 5.38803C14.4644 5.34171 14.5036 5.3132 14.5416 5.30251Z" fill="#858585"/>
<path d="M14.4209 5.38942L17.824 4.44629C17.8145 4.45579 17.8062 4.46648 17.7967 4.47598L14.3936 5.41912C14.4031 5.40962 14.4114 5.39893 14.4209 5.38942Z" fill="#8A8A8A"/>
<path d="M14.3934 5.41872L17.7965 4.47559C16.8569 5.48405 15.9126 6.4842 14.9671 7.48673C14.0192 8.49044 13.0701 9.49178 12.1211 10.4955C11.1672 11.5051 10.2122 12.5136 9.25721 13.5233C8.19172 14.6505 7.12743 15.7778 6.06195 16.905C6.04888 16.9193 6.03582 16.9335 6.02275 16.9478L2.61963 17.8909C2.6327 17.8766 2.64576 17.8624 2.65883 17.8481C3.72431 16.7209 4.78979 15.5936 5.85408 14.4664C6.80909 13.4567 7.76292 12.4483 8.71793 11.4386C9.66701 10.4349 10.6161 9.43239 11.564 8.42867C12.5095 7.42734 13.4538 6.42719 14.3934 5.41872Z" fill="#858585"/>
<path d="M2.61833 17.8904L6.02146 16.9473C5.9882 16.9829 5.95494 17.0197 5.92168 17.0554L2.51855 17.9985C2.55181 17.9629 2.58507 17.926 2.61833 17.8904Z" fill="#8A8A8A"/>
<path d="M2.5186 17.9978L5.92173 17.0547C5.8457 17.1366 5.76968 17.2162 5.68891 17.2875C5.60339 17.3623 5.52024 17.4122 5.43828 17.4348L2.03516 18.3779C2.11712 18.3554 2.20026 18.3055 2.28579 18.2306C2.36656 18.1594 2.44258 18.0798 2.5186 17.9978Z" fill="#858585"/>
<path d="M13.9214 0.99962L17.3245 0.0564854C17.372 0.0434193 17.4195 0.0327288 17.4682 0.0244141L14.0651 0.967549C14.0164 0.975863 13.9689 0.986554 13.9214 0.99962Z" fill="#8A8A8A"/>
<path d="M14.0649 0.965835L17.4681 0.0227002C17.5144 0.0143854 17.5619 0.00844629 17.6082 0.00488281L14.2051 0.948017C14.1588 0.951581 14.1113 0.958708 14.0649 0.965835Z" fill="#8F8F8F"/>
<path d="M14.2051 0.947886L17.6082 0.00475131C17.6486 0.00237565 17.689 0 17.7305 0L14.3274 0.943134C14.287 0.943134 14.2455 0.944322 14.2051 0.947886Z" fill="#949494"/>
<path d="M14.3276 0.943134L17.7308 0C17.7676 0 17.8056 0.00118783 17.8424 0.00356348L14.4393 0.946698C14.4025 0.943134 14.3645 0.941947 14.3276 0.943134Z" fill="#999999"/>
<path d="M14.4395 0.945088L17.8426 0.00195312C17.8663 0.00314095 17.8889 0.00551661 17.9127 0.00789226L14.5095 0.951027C14.4858 0.948651 14.4632 0.947463 14.4395 0.945088Z" fill="#9E9E9E"/>
<path d="M14.5098 0.9529L17.9129 0.00976562C17.9248 0.0109535 17.9355 0.0121413 17.9473 0.0133291L14.5442 0.956464C14.5323 0.955276 14.5205 0.954088 14.5098 0.9529Z" fill="#9E9E9E"/>
<path d="M14.5439 0.956806L17.9471 0.0136719C17.9803 0.0184232 18.0136 0.0231745 18.0468 0.0303014L14.6437 0.973436C14.6093 0.966309 14.576 0.961558 14.5439 0.956806Z" fill="#A3A3A3"/>
<path d="M14.6426 0.973408L18.0457 0.0302734C18.0778 0.0362126 18.1098 0.0433395 18.1419 0.0516543L14.7388 0.994789C14.7067 0.986474 14.6746 0.979347 14.6426 0.973408Z" fill="#A8A8A8"/>
<path d="M14.7388 0.994892L18.1419 0.0517578C18.1728 0.0600726 18.2048 0.0683874 18.2357 0.07789L14.8326 1.02102C14.8005 1.01152 14.7697 1.00202 14.7388 0.994892Z" fill="#ADADAD"/>
<path d="M14.8325 1.02028L18.2356 0.0771484C18.2665 0.0866511 18.2974 0.0973415 18.3283 0.10922L14.9252 1.05235C14.8943 1.04048 14.8634 1.02979 14.8325 1.02028Z" fill="#B3B3B3"/>
<path d="M14.9243 1.05251L18.3274 0.109375C18.3583 0.121253 18.3892 0.133132 18.4189 0.146198L15.0158 1.08933C14.9861 1.07627 14.9552 1.0632 14.9243 1.05251Z" fill="#B8B8B8"/>
<path d="M15.0166 1.08962L18.4197 0.146484C18.4506 0.15955 18.4815 0.173804 18.5124 0.189246L15.1093 1.13238C15.0784 1.11694 15.0475 1.10268 15.0166 1.08962Z" fill="#BDBDBD"/>
<path d="M15.1084 1.13259L18.5115 0.189453C18.5424 0.204895 18.5745 0.221524 18.6054 0.239342L15.2022 1.18248C15.1714 1.16466 15.1405 1.14803 15.1084 1.13259Z" fill="#C2C2C2"/>
<path d="M15.2021 1.18239L18.6053 0.239258C18.6373 0.257075 18.6694 0.27608 18.7015 0.296273L15.2984 1.23941C15.2663 1.21921 15.2342 1.20021 15.2021 1.18239Z" fill="#C7C7C7"/>
<path d="M15.2983 1.23903L18.7015 0.295898C18.7347 0.317279 18.768 0.33866 18.8001 0.362417L15.3969 1.30555C15.3649 1.28179 15.3316 1.25923 15.2983 1.23903Z" fill="#CCCCCC"/>
<path d="M15.397 1.30446L18.8001 0.361328C18.8357 0.386272 18.8702 0.412405 18.9046 0.439725L15.5015 1.38286C15.4671 1.35554 15.4326 1.32941 15.397 1.30446Z" fill="#D1D1D1"/>
<path d="M15.5015 1.38356L18.9046 0.44043C18.9426 0.470125 18.9794 0.501009 19.0162 0.53308L15.6131 1.47621C15.5763 1.44414 15.5395 1.41326 15.5015 1.38356Z" fill="#D6D6D6"/>
<path d="M15.6133 1.47634L19.0164 0.533203C19.058 0.570026 19.0984 0.608036 19.1388 0.64961L15.7356 1.59274C15.6952 1.55117 15.6549 1.51316 15.6133 1.47634Z" fill="#DBDBDB"/>
<path d="M15.7354 1.59255L19.1385 0.649414C19.1872 0.698115 19.2335 0.748004 19.281 0.802644L15.8779 1.74578C15.8316 1.69233 15.7841 1.64125 15.7354 1.59255Z" fill="#E0E0E0"/>
<path d="M15.8779 1.74489L19.2811 0.801758C19.3012 0.825514 19.3214 0.849271 19.3416 0.873027C20.7908 2.64408 22.2292 4.43294 23.6748 6.21468C23.6784 6.21825 23.682 6.223 23.6843 6.22656L20.2812 7.1697C20.2776 7.16613 20.2741 7.16138 20.2717 7.15782C18.8273 5.37608 17.3888 3.5884 15.9385 1.81616C15.9183 1.79122 15.8981 1.76746 15.8779 1.74489Z" fill="#E6E6E6"/>
<path d="M20.2812 7.1697L23.6844 6.22656C23.6939 6.23725 23.7046 6.24913 23.7176 6.26101L20.3145 7.20414C20.3014 7.19227 20.2908 7.18039 20.2812 7.1697Z" fill="#E0E0E0"/>
<path d="M20.3145 7.20485L23.7176 6.26172C23.733 6.27716 23.7532 6.29617 23.777 6.32111L20.3738 7.26424C20.3489 7.2393 20.3299 7.22148 20.3145 7.20485Z" fill="#DBDBDB"/>
<path d="M20.374 7.26442L23.7771 6.32129C23.7866 6.33079 23.7962 6.34029 23.8068 6.35098L20.4037 7.29412C20.393 7.28343 20.3835 7.27393 20.374 7.26442Z" fill="#E0E0E0"/>
<path d="M14.6225 7.4248C15.2058 8.13513 15.7747 8.82763 16.3437 9.52013C18.0031 11.543 19.6637 13.5647 21.3231 15.5887C22.5964 17.14 23.871 18.6913 25.1384 20.2521C25.2156 20.3484 25.2809 20.536 25.2833 20.6738C25.3617 24.6186 25.4341 28.5622 25.4959 32.5058C25.5102 33.4572 25.0457 34.0654 24.3615 33.9941C23.3127 33.8848 22.2626 33.7708 21.2126 33.6556C19.988 33.5214 18.7633 33.3848 17.5375 33.2493C17.5078 33.2446 17.4769 33.2315 17.4009 33.209C17.3439 30.022 17.288 26.8565 17.231 23.6683C17.1277 23.6505 17.0517 23.6327 16.9756 23.6244C16.5741 23.5804 16.1703 23.5365 15.7688 23.4925C15.574 23.4712 15.378 23.4498 15.1832 23.4284C14.4016 23.3429 13.6212 23.2562 12.8396 23.1635C12.6318 23.1409 12.5783 23.2134 12.5842 23.4937C12.6436 26.4193 12.6923 29.3461 12.7446 32.2706C12.747 32.4072 12.7493 32.5438 12.7529 32.7243C12.6448 32.7124 12.5617 32.7029 12.4773 32.6946C11.0234 32.5355 9.56953 32.3751 8.11445 32.2159C7.3875 32.1364 6.66055 32.0556 5.9336 31.976C5.09143 31.8833 4.61748 31.2027 4.59729 30.047C4.52602 26.1996 4.46188 22.3522 4.38705 18.5037C4.38111 18.2138 4.45594 18.0487 4.61273 17.886C6.19373 16.2468 7.76523 14.5933 9.34266 12.9458C10.73 11.4955 12.121 10.0499 13.5096 8.60075C13.879 8.21709 14.2448 7.8251 14.6225 7.4248Z" fill="white"/>
<path d="M14.6221 7.42458L18.0252 6.48145C18.6084 7.19177 19.1774 7.88427 19.7464 8.57677C21.4057 10.5996 23.0663 12.6213 24.7257 14.6454C25.9991 16.1967 27.2736 17.748 28.541 19.3088C28.5446 19.3135 28.5493 19.3183 28.5529 19.3242L25.1498 20.2674C25.1462 20.2626 25.1415 20.2567 25.1379 20.2519C23.8705 18.6911 22.596 17.1398 21.3226 15.5885C19.6632 13.5656 18.0026 11.5428 16.3432 9.51991C15.7755 8.8274 15.2065 8.1349 14.6221 7.42458Z" fill="#E6E6E6"/>
<path d="M25.1499 20.2674L28.553 19.3242C28.591 19.3765 28.6255 19.4501 28.6492 19.5273L25.2461 20.4705C25.2224 20.3933 25.1879 20.3196 25.1499 20.2674Z" fill="#EBEBEB"/>
<path d="M25.2461 20.4705L28.6492 19.5273C28.6563 19.5511 28.6635 19.5737 28.6682 19.5974L25.2651 20.5406C25.2603 20.518 25.2532 20.4942 25.2461 20.4705Z" fill="#E6E6E6"/>
<path d="M25.2651 20.5408L28.6683 19.5977C28.6718 19.6143 28.6754 19.6297 28.6778 19.6464L25.2746 20.5895C25.2723 20.574 25.2687 20.5574 25.2651 20.5408Z" fill="#E0E0E0"/>
<path d="M25.2744 20.5896L28.6775 19.6465C28.6799 19.6584 28.6811 19.6702 28.6823 19.6821L25.2792 20.6253C25.278 20.6134 25.2768 20.6015 25.2744 20.5896Z" fill="#DBDBDB"/>
<path d="M25.2793 20.6248L28.6824 19.6816C28.6836 19.6911 28.6848 19.7006 28.6848 19.7101L25.2817 20.6533C25.2817 20.6438 25.2805 20.6343 25.2793 20.6248Z" fill="#D6D6D6"/>
<path d="M25.2817 20.6531L28.6849 19.71C28.6849 19.7171 28.686 19.7242 28.686 19.7302C28.7644 23.6749 28.8369 27.6185 28.8987 31.5621C28.8987 31.5645 28.8987 31.568 28.8987 31.5704L25.4955 32.5135C25.4955 32.5112 25.4955 32.5076 25.4955 32.5052C25.4338 28.5628 25.3601 24.6181 25.2829 20.6733C25.2829 20.6662 25.2829 20.6602 25.2817 20.6531Z" fill="#D1D1D1"/>
<path d="M25.4953 32.5134L28.8985 31.5703C28.8985 31.6107 28.8985 31.6499 28.8973 31.6891L25.4941 32.6322C25.4953 32.593 25.4965 32.5538 25.4953 32.5134Z" fill="#CCCCCC"/>
<path d="M25.4942 32.6326L28.8973 31.6895C28.8962 31.7263 28.8938 31.7631 28.8914 31.7987L25.4883 32.7419C25.4918 32.7062 25.493 32.6694 25.4942 32.6326Z" fill="#C7C7C7"/>
<path d="M25.4895 32.742L28.8926 31.7988C28.8902 31.8333 28.8867 31.8665 28.8831 31.8998L25.48 32.8429C25.4835 32.8097 25.4871 32.7752 25.4895 32.742Z" fill="#C2C2C2"/>
<path d="M25.4799 32.8425L28.883 31.8994C28.8794 31.9315 28.8747 31.9624 28.8699 31.9933L25.4668 32.9364C25.4715 32.9055 25.4751 32.8734 25.4799 32.8425Z" fill="#BDBDBD"/>
<path d="M25.4671 32.9363L28.8702 31.9932C28.8655 32.0229 28.8607 32.0526 28.8548 32.0811L25.4517 33.0242C25.4564 32.9945 25.4624 32.966 25.4671 32.9363Z" fill="#B8B8B8"/>
<path d="M25.4502 33.0242L28.8533 32.0811C28.8473 32.1096 28.8414 32.1369 28.8343 32.1642L25.4312 33.1073C25.4383 33.0788 25.4442 33.0515 25.4502 33.0242Z" fill="#B3B3B3"/>
<path d="M25.4325 33.1062L28.8356 32.1631C28.8285 32.1904 28.8214 32.2165 28.8143 32.2427L25.4111 33.1858C25.4183 33.1597 25.4254 33.1335 25.4325 33.1062Z" fill="#ADADAD"/>
<path d="M25.4097 33.1863L28.8128 32.2432C28.8057 32.2693 28.7974 32.2942 28.7879 32.3192L25.3848 33.2623C25.3943 33.2374 25.4026 33.2112 25.4097 33.1863Z" fill="#A8A8A8"/>
<path d="M25.3864 33.2625L28.7895 32.3193C28.7812 32.3443 28.7717 32.3692 28.761 32.393L25.3579 33.3361C25.3674 33.3112 25.3769 33.2874 25.3864 33.2625Z" fill="#A3A3A3"/>
<path d="M25.3578 33.3357L28.7609 32.3926C28.7514 32.4175 28.7407 32.4413 28.7288 32.465L25.3257 33.4082C25.3376 33.3844 25.3483 33.3607 25.3578 33.3357Z" fill="#9E9E9E"/>
<path d="M25.3254 33.408L28.7285 32.4648C28.7166 32.4898 28.7048 32.5135 28.6917 32.5361L25.2886 33.4792C25.3016 33.4555 25.3147 33.4317 25.3254 33.408Z" fill="#999999"/>
<path d="M25.2898 33.4793L28.693 32.5361C28.6799 32.5611 28.6656 32.5848 28.6502 32.6074L25.2471 33.5505C25.2625 33.528 25.2756 33.5042 25.2898 33.4793Z" fill="#949494"/>
<path d="M25.2471 33.5506L28.6502 32.6074C28.6336 32.6336 28.6158 32.6597 28.5979 32.6834L25.1948 33.6266C25.2126 33.6028 25.2305 33.5767 25.2471 33.5506Z" fill="#8F8F8F"/>
<path d="M25.1948 33.6267L28.5979 32.6836C28.5754 32.7133 28.5516 32.7418 28.5267 32.7679L25.1235 33.7111C25.1485 33.6849 25.1722 33.6564 25.1948 33.6267Z" fill="#8A8A8A"/>
<path d="M25.1236 33.7127L28.5267 32.7695C28.4115 32.8931 28.2725 32.981 28.1145 33.0237L24.7114 33.9669C24.8694 33.9229 25.0084 33.8362 25.1236 33.7127Z" fill="#858585"/>
<path d="M29.4333 19.03L32.8364 18.0869C32.4658 18.6903 32.0976 19.2961 31.7246 19.8948C31.7211 19.8995 31.7187 19.9043 31.7151 19.909L28.312 20.8522C28.3156 20.8474 28.318 20.8427 28.3215 20.8379C28.6945 20.2393 29.0627 19.6335 29.4333 19.03Z" fill="#949494"/>
<path d="M28.312 20.8523L31.7151 19.9092C31.689 19.9508 31.6617 19.99 31.6355 20.0244L28.2324 20.9675C28.2597 20.9331 28.2859 20.8939 28.312 20.8523Z" fill="#8F8F8F"/>
<path d="M28.2335 20.9675L31.6366 20.0244C31.6104 20.0589 31.5843 20.0897 31.5594 20.1183L28.1562 21.0614C28.1812 21.0329 28.2073 21.002 28.2335 20.9675Z" fill="#8A8A8A"/>
<path d="M28.1553 21.0613L31.5584 20.1182C31.48 20.2025 31.4004 20.2571 31.3196 20.2785L27.9165 21.2217C27.9985 21.1991 28.0769 21.1456 28.1553 21.0613Z" fill="#858585"/>
<path d="M29.4248 18.5799L32.8279 17.6367C32.8303 17.7876 32.8327 17.9361 32.8362 18.0869L29.4331 19.03C29.4296 18.8792 29.4272 18.7307 29.4248 18.5799Z" fill="#D1D1D1"/>
<path d="M14.5094 0.953011C15.0095 1.00765 15.5143 1.29867 15.9384 1.81656C17.3876 3.58761 18.826 5.37648 20.2716 7.15822C20.3001 7.19385 20.3334 7.22117 20.4046 7.29482C20.4094 7.14159 20.4189 7.03468 20.4177 6.9254C20.3939 5.52258 20.3678 4.11738 20.344 2.71456C20.331 1.9199 20.5056 1.69303 21.0758 1.75479C21.602 1.81181 22.1282 1.87001 22.6532 1.92703C23.1794 1.98523 23.7044 2.04225 24.2306 2.10045C24.7699 2.16103 24.9659 2.44492 24.979 3.18969C25.0372 6.39326 25.0954 9.59683 25.1464 12.7992C25.15 13.0629 25.2141 13.2435 25.3602 13.4216C26.5849 14.9135 27.8084 16.4078 29.0247 17.9128C29.1791 18.1029 29.2931 18.3559 29.4262 18.5804C29.4285 18.7312 29.4309 18.8797 29.4345 19.0305C29.0639 19.634 28.6957 20.2398 28.3227 20.8384C28.1469 21.1199 27.9782 21.253 27.7941 21.2328C27.6409 21.2161 27.4758 21.0926 27.2857 20.861C26.1727 19.5009 25.068 18.1266 23.9586 16.7606C22.9834 15.5585 22.007 14.36 21.0306 13.1591C20.0245 11.9214 19.0172 10.6825 18.0123 9.4436C16.9267 8.1061 15.841 6.7698 14.7601 5.42874C14.6959 5.34916 14.6413 5.3064 14.5878 5.30046C14.5344 5.29452 14.4821 5.32421 14.4215 5.39073C13.4725 6.4087 12.5198 7.41954 11.5648 8.43038C10.6158 9.43291 9.66668 10.4354 8.7176 11.438C7.76378 12.4476 6.80877 13.4561 5.85375 14.4657C4.78827 15.593 3.72398 16.7202 2.6585 17.8475C2.53615 17.9781 2.41618 18.1159 2.28552 18.2299C2.1513 18.3487 2.01945 18.4034 1.89354 18.3891C1.73912 18.3725 1.59183 18.2525 1.45285 18.0233C1.01455 17.2999 0.597619 16.5527 0.172377 15.8163C0.170002 15.6654 0.167626 15.517 0.164062 15.3661C0.394501 15.0596 0.605934 14.7211 0.858941 14.4515C2.649 12.5403 4.44618 10.6409 6.24455 8.74278C7.62124 7.28888 9.00149 5.84329 10.3782 4.39058C11.2928 3.42607 12.1979 2.44611 13.1197 1.49347C13.5224 1.07536 14.0141 0.898371 14.5094 0.953011Z" fill="white"/>
<path d="M20.71 1.76947L24.1131 0.826331C24.1309 0.82158 24.1487 0.818017 24.1677 0.814453L20.7646 1.75759C20.7456 1.76115 20.7278 1.76471 20.71 1.76947Z" fill="#8A8A8A"/>
<path d="M20.7646 1.75711L24.1678 0.813979C24.1892 0.810415 24.2117 0.806852 24.2355 0.805664L20.8324 1.74761C20.8086 1.74999 20.786 1.75236 20.7646 1.75711Z" fill="#8F8F8F"/>
<path d="M20.832 1.74748L24.2352 0.804345C24.2601 0.801969 24.285 0.800781 24.3112 0.800781L20.9081 1.74392C20.8819 1.7451 20.8558 1.74629 20.832 1.74748Z" fill="#949494"/>
<path d="M20.9082 1.74489L24.3113 0.801758C24.341 0.801758 24.3719 0.802946 24.4052 0.805321L21.002 1.74846C20.9688 1.74489 20.9379 1.74489 20.9082 1.74489Z" fill="#999999"/>
<path d="M21.002 1.74782L24.4051 0.804688C24.4288 0.805875 24.4538 0.808251 24.4787 0.810627C25.0049 0.867642 25.5311 0.925846 26.0562 0.982862C26.5824 1.04107 27.1074 1.09808 27.6336 1.15628C27.6443 1.15747 27.6538 1.15866 27.6633 1.15985L24.2602 2.10298C24.2507 2.10179 24.24 2.10061 24.2305 2.09942C23.7054 2.04122 23.1792 1.98301 22.653 1.926C22.1268 1.86779 21.6018 1.81078 21.0756 1.75376C21.0507 1.75139 21.0257 1.7502 21.002 1.74782Z" fill="#9E9E9E"/>
<path d="M24.2603 2.10329L27.6634 1.16016C27.6919 1.16372 27.7192 1.16847 27.7453 1.17322L24.3422 2.11636C24.3161 2.11161 24.2888 2.10804 24.2603 2.10329Z" fill="#A3A3A3"/>
<path d="M24.3423 2.11794L27.7454 1.1748C27.768 1.17956 27.7882 1.18431 27.8096 1.18906L24.4064 2.13219C24.385 2.12625 24.3649 2.1215 24.3423 2.11794Z" fill="#A8A8A8"/>
<path d="M24.4062 2.13063L27.8094 1.1875C27.8272 1.19225 27.845 1.197 27.8616 1.20175L24.4585 2.14489C24.4419 2.14014 24.4241 2.13539 24.4062 2.13063Z" fill="#ADADAD"/>
<path d="M24.459 2.14626L27.8621 1.20312C27.8764 1.20788 27.8906 1.21263 27.9049 1.21738L24.5017 2.16051C24.4875 2.15576 24.4732 2.15101 24.459 2.14626Z" fill="#B3B3B3"/>
<path d="M24.5015 2.16091L27.9046 1.21777C27.9177 1.22252 27.9295 1.22728 27.9414 1.23322L24.5383 2.17635C24.5264 2.17041 24.5145 2.16566 24.5015 2.16091Z" fill="#B8B8B8"/>
<path d="M24.5381 2.17653L27.9412 1.2334C27.9531 1.23815 27.9638 1.24409 27.9757 1.24884L24.5725 2.19197C24.5618 2.18604 24.55 2.18128 24.5381 2.17653Z" fill="#BDBDBD"/>
<path d="M24.5728 2.19118L27.9759 1.24805C27.9854 1.2528 27.9961 1.25874 28.0056 1.26349L24.6024 2.20662C24.5929 2.20187 24.5834 2.19593 24.5728 2.19118Z" fill="#C2C2C2"/>
<path d="M24.6025 2.20681L28.0057 1.26367C28.0152 1.26961 28.0247 1.27436 28.0342 1.2803L24.631 2.22344C24.6215 2.2175 24.612 2.21275 24.6025 2.20681Z" fill="#C7C7C7"/>
<path d="M24.6309 2.22341L28.034 1.28027C28.0435 1.28621 28.0518 1.29215 28.0601 1.29809L24.657 2.24123C24.6475 2.23529 24.6392 2.22935 24.6309 2.22341Z" fill="#CCCCCC"/>
<path d="M24.6572 2.24196L28.0604 1.29883C28.0687 1.30477 28.077 1.31071 28.0853 1.31783L24.6822 2.26097C24.6739 2.25384 24.6655 2.2479 24.6572 2.24196Z" fill="#D1D1D1"/>
<path d="M24.6821 2.26052L28.0853 1.31738C28.0936 1.32451 28.1019 1.33164 28.1102 1.33876L24.7071 2.2819C24.6988 2.27477 24.6904 2.26764 24.6821 2.26052Z" fill="#D6D6D6"/>
<path d="M24.707 2.282L28.1102 1.33887C28.1185 1.34718 28.128 1.35431 28.1363 1.36262L24.7332 2.30576C24.7248 2.29744 24.7165 2.28913 24.707 2.282Z" fill="#DBDBDB"/>
<path d="M24.7329 2.30544L28.136 1.3623C28.1455 1.37181 28.1539 1.38131 28.1634 1.392L24.7602 2.33513C24.7507 2.32444 24.7424 2.31494 24.7329 2.30544Z" fill="#E0E0E0"/>
<path d="M24.7603 2.33571L28.1634 1.39258C28.1753 1.40683 28.1871 1.42109 28.1978 1.43653L24.7947 2.37966C24.7828 2.36303 24.7721 2.34878 24.7603 2.33571Z" fill="#E6E6E6"/>
<path d="M24.7935 2.37847L28.1966 1.43652C28.2417 1.49829 28.2774 1.57312 28.3047 1.65983L24.9015 2.60297C24.8742 2.51507 24.8386 2.44142 24.7935 2.37847Z" fill="#EBEBEB"/>
<path d="M24.9019 2.60134L28.305 1.6582C28.3145 1.68909 28.324 1.72235 28.3311 1.75679L24.928 2.69993C24.9209 2.66548 24.9125 2.63222 24.9019 2.60134Z" fill="#E6E6E6"/>
<path d="M24.9292 2.69997L28.3323 1.75684C28.3394 1.78772 28.3454 1.81979 28.3513 1.85424L24.9482 2.79737C24.9423 2.76411 24.9363 2.73085 24.9292 2.69997Z" fill="#E0E0E0"/>
<path d="M24.9468 2.79763L28.3499 1.85449C28.3558 1.88894 28.3606 1.92576 28.3642 1.96377L24.961 2.90691C24.9575 2.8689 24.9527 2.83207 24.9468 2.79763Z" fill="#DBDBDB"/>
<path d="M24.9624 2.907L28.3655 1.96387C28.3703 2.00663 28.3738 2.05058 28.3762 2.0969L24.9731 3.04004C24.9707 2.99371 24.9672 2.94976 24.9624 2.907Z" fill="#D6D6D6"/>
<path d="M24.9731 3.03981L28.3763 2.09668C28.3786 2.14419 28.381 2.19408 28.3822 2.24635C28.4404 5.44991 28.4986 8.65348 28.5497 11.8559C28.5497 11.8796 28.5509 11.9022 28.5521 11.9248L25.1489 12.8679C25.1478 12.8453 25.1466 12.8228 25.1466 12.799C25.0955 9.59543 25.0373 6.39305 24.9791 3.18948C24.9779 3.1384 24.9755 3.08852 24.9731 3.03981Z" fill="#D1D1D1"/>
<path d="M25.1475 12.8679L28.5506 11.9248C28.5518 11.9462 28.5541 11.9676 28.5553 11.9878L25.1522 12.9309C25.151 12.9107 25.1498 12.8893 25.1475 12.8679Z" fill="#D6D6D6"/>
<path d="M25.1533 12.9324L28.5564 11.9893C28.5588 12.0095 28.5612 12.0296 28.5648 12.0486L25.1616 12.9918C25.1581 12.9716 25.1557 12.9526 25.1533 12.9324Z" fill="#DBDBDB"/>
<path d="M25.1621 12.991L28.5652 12.0479C28.5688 12.068 28.5724 12.0882 28.5771 12.1084L25.174 13.0516C25.1692 13.0314 25.1645 13.0112 25.1621 12.991Z" fill="#E0E0E0"/>
<path d="M25.1724 13.0506L28.5755 12.1074C28.5814 12.1312 28.5874 12.1549 28.5945 12.1775L25.1914 13.1206C25.1842 13.0981 25.1783 13.0743 25.1724 13.0506Z" fill="#E6E6E6"/>
<path d="M25.1914 13.1209L28.5945 12.1777C28.623 12.2668 28.6634 12.3464 28.7204 12.4248L25.3173 13.3679C25.2615 13.2895 25.2199 13.21 25.1914 13.1209Z" fill="#EBEBEB"/>
<path d="M25.3174 13.3679L28.7205 12.4248C28.7336 12.4426 28.7478 12.4604 28.7621 12.4783C29.9867 13.9702 31.2102 15.4645 32.4265 16.9694C32.4432 16.9896 32.4598 17.011 32.4752 17.0336L29.0721 17.9767C29.0567 17.9553 29.04 17.9339 29.0234 17.9126C27.8071 16.4076 26.5836 14.9145 25.359 13.4214C25.3447 13.4048 25.3304 13.3869 25.3174 13.3679Z" fill="#E6E6E6"/>
<path d="M29.0732 17.9763L32.4764 17.0332C32.607 17.2138 32.7104 17.4371 32.828 17.6366L29.4248 18.5798C29.3061 18.3802 29.2039 18.1569 29.0732 17.9763Z" fill="#EBEBEB"/>
</svg>
