<svg width="24" height="34" viewBox="0 0 24 34" fill="none" xmlns="http://www.w3.org/2000/svg">
<path d="M11.0508 19.1518L13.5875 17.043C13.5993 17.043 13.6111 17.0447 13.6229 17.0447L11.0862 19.1535C11.0744 19.1535 11.0626 19.1535 11.0508 19.1518Z" fill="#A8A8A8"/>
<path d="M11.0859 19.1538L13.6226 17.0449C13.7523 17.0517 13.8804 17.055 14.0084 17.0533L11.4717 19.1622C11.3437 19.1639 11.2156 19.1622 11.0859 19.1538Z" fill="#A3A3A3"/>
<path d="M11.4717 19.1638L14.0084 17.0549C14.1398 17.0532 14.2695 17.0482 14.3992 17.0381L11.8608 19.147C11.7328 19.1571 11.6031 19.1621 11.4717 19.1638Z" fill="#9E9E9E"/>
<path d="M11.8608 19.1475L14.3976 17.0386C14.5323 17.0285 14.6671 17.0134 14.7984 16.9932L12.2617 19.102C12.1303 19.1223 11.9973 19.1374 11.8608 19.1475Z" fill="#999999"/>
<path d="M12.2617 19.1011L14.7984 16.9923C14.9416 16.9704 15.0831 16.9451 15.2212 16.9131L12.6862 19.022C12.5464 19.054 12.4049 19.0809 12.2617 19.1011Z" fill="#949494"/>
<path d="M12.686 19.0228L15.2227 16.9139C15.3828 16.8768 15.5377 16.833 15.691 16.7842L13.1543 18.8931C13.001 18.9419 12.8444 18.9857 12.686 19.0228Z" fill="#8F8F8F"/>
<path d="M13.1543 18.893L15.691 16.7841C15.8847 16.7201 16.0717 16.6477 16.2536 16.5635L13.7169 18.6723C13.535 18.7549 13.348 18.829 13.1543 18.893Z" fill="#8A8A8A"/>
<path d="M13.7173 18.672L16.254 16.5632C16.67 16.3711 17.0541 16.1286 17.4011 15.8389L14.8644 17.9477C14.5174 18.2358 14.1333 18.48 13.7173 18.672Z" fill="#858585"/>
<path d="M6.96401 8.13204L9.50241 6.02148C9.11162 6.34657 8.76464 6.72557 8.47324 7.14667L5.93652 9.25722C6.22624 8.83612 6.57323 8.45713 6.96401 8.13204Z" fill="#858585"/>
<path d="M5.93622 9.25731L8.47293 7.14844C8.34997 7.32698 8.23712 7.51227 8.13605 7.70429L5.59766 9.81316C5.7004 9.62114 5.81326 9.43417 5.93622 9.25731Z" fill="#8A8A8A"/>
<path d="M5.5982 9.81297L8.13491 7.7041C8.05743 7.85233 7.985 8.00392 7.9193 8.15889L5.38428 10.2678C5.44828 10.1111 5.52071 9.9612 5.5982 9.81297Z" fill="#8F8F8F"/>
<path d="M5.38402 10.2681L7.92073 8.15918C7.86514 8.29056 7.81461 8.42532 7.77082 8.56175L5.23242 10.6706C5.2779 10.5342 5.32843 10.3994 5.38402 10.2681Z" fill="#949494"/>
<path d="M5.23231 10.6704L7.76903 8.56152C7.7286 8.68448 7.69323 8.80745 7.66122 8.93378L5.12451 11.0426C5.15652 10.9163 5.19189 10.7934 5.23231 10.6704Z" fill="#999999"/>
<path d="M5.12485 11.0425L7.66156 8.93359C7.63124 9.0515 7.60597 9.16941 7.58407 9.29069L5.04736 11.3996C5.06926 11.28 5.09453 11.1604 5.12485 11.0425Z" fill="#9E9E9E"/>
<path d="M5.04707 11.3999L7.58378 9.29102C7.56188 9.40556 7.54504 9.52178 7.53156 9.63969L4.99316 11.7469C5.00832 11.6307 5.02517 11.5144 5.04707 11.3999Z" fill="#A3A3A3"/>
<path d="M4.99321 11.7466L7.53161 9.6377C7.51813 9.75055 7.50802 9.86509 7.50129 9.98131L4.96289 12.0902C4.96963 11.9756 4.97973 11.8611 4.99321 11.7466Z" fill="#A8A8A8"/>
<path d="M4.96301 12.0903L7.49972 9.98145C7.49299 10.0943 7.48962 10.2088 7.4913 10.3234L4.95459 12.4323C4.95459 12.3177 4.95796 12.2032 4.96301 12.0903Z" fill="#ADADAD"/>
<path d="M4.95459 12.4321L7.4913 10.3232C7.4913 10.3569 7.4913 10.3923 7.49299 10.4277C7.49467 10.5203 7.49972 10.613 7.50478 10.7039L4.96807 12.8128C4.96133 12.7218 4.95796 12.6292 4.95627 12.5365C4.95459 12.5012 4.95459 12.4658 4.95459 12.4321Z" fill="#B3B3B3"/>
<path d="M4.96777 12.813L7.50449 10.7041C7.51291 10.8389 7.52638 10.9719 7.54323 11.105L5.00651 13.2139C4.98967 13.0808 4.9762 12.946 4.96777 12.813Z" fill="#B8B8B8"/>
<path d="M5.00684 13.2134L7.54355 11.1045C7.56208 11.2443 7.58397 11.3824 7.61092 11.5205L5.07421 13.6294C5.04726 13.4913 5.02536 13.3532 5.00684 13.2134Z" fill="#BDBDBD"/>
<path d="M5.07422 13.6294L7.61093 11.5205C7.63957 11.6704 7.67325 11.8186 7.71199 11.9635L5.17528 14.0724C5.13654 13.9258 5.10285 13.7776 5.07422 13.6294Z" fill="#C2C2C2"/>
<path d="M5.17529 14.0727L7.712 11.9639C7.7558 12.1306 7.80633 12.2957 7.8636 12.4574L5.32689 14.5663C5.2713 14.4046 5.22077 14.2395 5.17529 14.0727Z" fill="#C7C7C7"/>
<path d="M5.32666 14.5669L7.86337 12.458C7.93243 12.6585 8.0116 12.8555 8.09919 13.0475L5.56416 15.1564C5.47657 14.9644 5.39741 14.7673 5.32666 14.5669Z" fill="#CCCCCC"/>
<path d="M5.56445 15.1557L8.10117 13.0469C8.23086 13.3299 8.37741 13.6027 8.54079 13.8655L6.00408 15.9744C5.8407 15.7116 5.69247 15.4387 5.56445 15.1557Z" fill="#D1D1D1"/>
<path d="M6.00391 15.9741L8.54062 13.8652C8.89771 14.4362 9.33397 14.955 9.8275 15.3997L7.29079 17.5086C6.79726 17.0639 6.361 16.5468 6.00391 15.9741Z" fill="#D6D6D6"/>
<path d="M7.29102 17.5093L9.82773 15.4004C10.0551 15.6059 10.296 15.7945 10.547 15.9664L8.01026 18.0752C7.75928 17.9034 7.51841 17.7148 7.29102 17.5093Z" fill="#D1D1D1"/>
<path d="M8.01025 18.0747L10.547 15.9658C10.712 16.0787 10.8822 16.1831 11.054 16.2808L8.51726 18.3897C8.34545 18.2937 8.17533 18.1875 8.01025 18.0747Z" fill="#CCCCCC"/>
<path d="M8.51855 18.3901L11.0553 16.2812C11.1984 16.3604 11.3433 16.4345 11.4915 16.5036L8.95313 18.6125C8.80659 18.5451 8.66004 18.471 8.51855 18.3901Z" fill="#C7C7C7"/>
<path d="M8.95312 18.6118L11.4898 16.5029C11.6195 16.5636 11.7509 16.6192 11.884 16.6697L9.34728 18.7786C9.21421 18.728 9.08282 18.6724 8.95312 18.6118Z" fill="#C2C2C2"/>
<path d="M9.34717 18.7788L11.8839 16.6699C12.0052 16.7171 12.1281 16.7592 12.2528 16.7979L9.71605 18.9068C9.59309 18.8681 9.47013 18.826 9.34717 18.7788Z" fill="#BDBDBD"/>
<path d="M9.71777 18.9067L12.2544 16.7979C12.3706 16.8332 12.4868 16.8652 12.6047 16.8939L10.0681 19.0027C9.95021 18.9741 9.83231 18.9421 9.71777 18.9067Z" fill="#B8B8B8"/>
<path d="M10.0684 19.0034L12.6051 16.8945C12.7179 16.9215 12.8308 16.9451 12.9436 16.9653L10.4069 19.0741C10.2941 19.0556 10.1795 19.0304 10.0684 19.0034Z" fill="#B3B3B3"/>
<path d="M10.4072 19.0757L12.9439 16.9668C13.0551 16.987 13.168 17.0039 13.2808 17.0173L10.7441 19.1262C10.6313 19.111 10.5201 19.0942 10.4072 19.0757Z" fill="#ADADAD"/>
<path d="M10.7437 19.1245L13.2804 17.0156C13.3814 17.0274 13.4842 17.0358 13.5869 17.0426L11.0502 19.1514C10.9475 19.1464 10.8464 19.1363 10.7437 19.1245Z" fill="#A8A8A8"/>
<path d="M19.9881 18.8335L22.5265 16.7246L13.712 31.891L11.1753 33.9999L19.9881 18.8335Z" fill="#8B8B8B"/>
<path d="M3.72021 4.31724L6.25693 2.20668C6.88689 1.68283 7.58592 1.24152 8.3439 0.894531L5.80719 3.0034C5.04921 3.35208 4.3485 3.79339 3.72021 4.31724Z" fill="#858585"/>
<path d="M5.80713 3.00346L8.34384 0.89459C8.6723 0.744678 9.01086 0.61161 9.35785 0.49707L6.82114 2.60763C6.47247 2.72217 6.1339 2.85355 5.80713 3.00346Z" fill="#8A8A8A"/>
<path d="M6.8208 2.60782L9.35912 0.498951C9.63872 0.407993 9.92675 0.327142 10.2181 0.259766L7.67982 2.36864C7.38843 2.43602 7.10209 2.51518 6.8208 2.60782Z" fill="#8F8F8F"/>
<path d="M7.68018 2.3687L10.2186 0.259824C10.4746 0.20087 10.734 0.152023 10.9968 0.113281L8.46005 2.22215C8.1956 2.2609 7.93621 2.30974 7.68018 2.3687Z" fill="#949494"/>
<path d="M8.45996 2.22168L10.9967 0.112809C11.2392 0.0774367 11.4835 0.0488019 11.7328 0.0302734L9.19436 2.13915C8.94675 2.15936 8.70083 2.18631 8.45996 2.22168Z" fill="#999999"/>
<path d="M9.19434 2.13919L11.7327 0.0303193C11.9669 0.0117908 12.2044 0.0016844 12.4452 0L9.90684 2.11056C9.66765 2.11224 9.42847 2.12235 9.19434 2.13919Z" fill="#9E9E9E"/>
<path d="M9.90723 2.11087L12.4456 0.000312611C12.6764 -0.00137179 12.9105 0.00368142 13.1463 0.0171566L10.6079 2.12603C10.3721 2.11255 10.138 2.1075 9.90723 2.11087Z" fill="#A3A3A3"/>
<path d="M10.6074 2.12547L13.1458 0.0166016C13.1677 0.018286 13.1896 0.018286 13.2115 0.0199704L10.6731 2.12884C10.6512 2.12716 10.6293 2.12716 10.6074 2.12547Z" fill="#A8A8A8"/>
<path d="M10.6733 2.12938L13.2101 0.0205078C13.4054 0.0322986 13.6008 0.0491427 13.7945 0.0727243L11.2578 2.1816C11.0641 2.1597 10.8687 2.14117 10.6733 2.12938Z" fill="#A8A8A8"/>
<path d="M11.2578 2.18212L13.7945 0.0732422C14.0084 0.0985082 14.2207 0.128828 14.4329 0.167569L11.8962 2.27644C11.684 2.2377 11.4717 2.20738 11.2578 2.18212Z" fill="#ADADAD"/>
<path d="M11.8965 2.27587L14.4332 0.166992C14.6471 0.205733 14.8594 0.249528 15.0682 0.30006L12.5315 2.40893C12.321 2.3584 12.1104 2.31292 11.8965 2.27587Z" fill="#B3B3B3"/>
<path d="M12.5312 2.40868L15.068 0.299805C15.2836 0.352021 15.4975 0.410975 15.708 0.476667L13.1713 2.58554C12.9608 2.51985 12.7469 2.46089 12.5312 2.40868Z" fill="#B8B8B8"/>
<path d="M13.1714 2.58544L15.7081 0.476562C15.9338 0.545623 16.1561 0.623106 16.3768 0.707326L13.8401 2.8162C13.6194 2.73198 13.3971 2.6545 13.1714 2.58544Z" fill="#BDBDBD"/>
<path d="M13.8403 2.81661L16.377 0.706055C16.6145 0.797012 16.8504 0.896392 17.0811 1.00251L14.5427 3.11307C14.312 3.00527 14.0778 2.90757 13.8403 2.81661Z" fill="#C2C2C2"/>
<path d="M14.5425 3.11278L17.0809 1.00391C17.3403 1.1235 17.5946 1.2532 17.8439 1.393L15.3072 3.50188C15.0579 3.36207 14.8019 3.23237 14.5425 3.11278Z" fill="#C7C7C7"/>
<path d="M15.3071 3.50243L17.8438 1.39355C18.142 1.56031 18.4317 1.74054 18.7147 1.93256L16.1763 4.04144C15.895 3.84942 15.6036 3.66918 15.3071 3.50243Z" fill="#CCCCCC"/>
<path d="M16.1763 4.04149L18.713 1.93262C19.1408 2.22402 19.5484 2.54406 19.9342 2.89104L17.3975 4.99992C17.0117 4.65293 16.6041 4.33289 16.1763 4.04149Z" fill="#D1D1D1"/>
<path d="M17.3975 4.9995L19.9342 2.89062C20.7629 3.63513 21.4906 4.49923 22.0885 5.45429L19.5518 7.56316C18.9539 6.6081 18.2279 5.744 17.3975 4.9995Z" fill="#D6D6D6"/>
<path d="M19.5518 7.56493L22.0885 5.45605C22.363 5.89568 22.6106 6.35553 22.8279 6.83221L20.2912 8.94109C20.0739 8.4644 19.8263 8.00456 19.5518 7.56493Z" fill="#D1D1D1"/>
<path d="M20.2915 8.9409L22.8282 6.83203C22.9764 7.15881 23.1112 7.49232 23.2308 7.83425L20.6941 9.94312C20.5745 9.60119 20.4397 9.26599 20.2915 8.9409Z" fill="#CCCCCC"/>
<path d="M20.6938 9.94188L23.2306 7.83301C23.3283 8.11262 23.4158 8.39728 23.4933 8.68532L20.9566 10.7942C20.8791 10.5062 20.7915 10.2215 20.6938 9.94188Z" fill="#C7C7C7"/>
<path d="M20.9551 10.7954L23.4918 8.68652C23.5592 8.94255 23.6198 9.20195 23.6703 9.46303L21.1336 11.5719C21.0831 11.3091 21.0241 11.0497 20.9551 10.7954Z" fill="#C2C2C2"/>
<path d="M21.1338 11.5718L23.6705 9.46289C23.7177 9.70544 23.7564 9.95137 23.7884 10.2007L21.2517 12.3095C21.2214 12.0602 21.181 11.8143 21.1338 11.5718Z" fill="#BDBDBD"/>
<path d="M21.2515 12.3081L23.7882 10.1992C23.8185 10.4367 23.8421 10.6759 23.8572 10.9168L21.3205 13.0256C21.3054 12.7848 21.2818 12.5456 21.2515 12.3081Z" fill="#B8B8B8"/>
<path d="M21.3223 13.0259L23.859 10.917C23.8691 11.0821 23.8775 11.2471 23.8809 11.4139C23.8826 11.4695 23.8826 11.5234 23.8826 11.579L21.3458 13.6878C21.3458 13.6323 21.3442 13.5784 21.3442 13.5228C21.3391 13.3577 21.3324 13.1909 21.3223 13.0259Z" fill="#B3B3B3"/>
<path d="M21.3457 13.688L23.8824 11.5791C23.8824 11.7678 23.8774 11.9547 23.8673 12.14L21.3306 14.2506C21.3407 14.0636 21.3457 13.8766 21.3457 13.688Z" fill="#ADADAD"/>
<path d="M21.3305 14.2505L23.8672 12.1416C23.8555 12.3404 23.8386 12.5391 23.815 12.7362L21.2783 14.8451C21.3019 14.648 21.3187 14.4492 21.3305 14.2505Z" fill="#A8A8A8"/>
<path d="M21.2781 14.8432L23.8149 12.7344C23.7896 12.9483 23.7576 13.1605 23.7188 13.3711L21.1821 15.48C21.2192 15.2711 21.2529 15.0589 21.2781 14.8432Z" fill="#A3A3A3"/>
<path d="M21.1824 15.48L23.7191 13.3711C23.6753 13.6052 23.6247 13.836 23.5675 14.0634L21.0308 16.1723C21.088 15.9465 21.1386 15.7158 21.1824 15.48Z" fill="#9E9E9E"/>
<path d="M21.0309 16.1743L23.5676 14.0654C23.502 14.3248 23.4278 14.5792 23.3453 14.8268L20.8086 16.9357C20.8911 16.688 20.9652 16.4337 21.0309 16.1743Z" fill="#999999"/>
<path d="M20.8084 16.935L23.3451 14.8262C23.2491 15.1176 23.1429 15.3989 23.0284 15.6734L20.4917 17.7823C20.6062 17.5077 20.7124 17.2264 20.8084 16.935Z" fill="#949494"/>
<path d="M20.492 17.7827L23.0288 15.6738C22.8906 16.0023 22.7424 16.3173 22.5841 16.6154L20.0474 18.7243C20.2057 18.4245 20.3556 18.1095 20.492 17.7827Z" fill="#8F8F8F"/>
<path d="M20.0487 18.7222L22.5854 16.6133C22.5652 16.6503 22.5467 16.6874 22.5265 16.7245L19.9897 18.8333C20.0083 18.7963 20.0285 18.7592 20.0487 18.7222Z" fill="#8A8A8A"/>
<path d="M10.6736 2.12957C16.4224 2.47655 21.2095 7.50281 21.3443 13.5229C21.3881 15.4818 20.785 17.3684 19.99 18.8321L11.1772 33.9985L1.86582 17.5351C0.983192 15.9703 0.295955 13.9726 0.257214 12.2528C0.124146 6.23446 4.71751 1.77079 10.6736 2.12957ZM11.0509 19.1521C14.4584 19.3576 16.9581 16.6912 16.8823 13.2551C16.8098 10.021 14.1872 7.08003 10.778 6.87621C7.58774 6.68419 4.88427 9.30344 4.9567 12.5375C5.0325 15.9737 7.86061 18.9601 11.0509 19.1521Z" fill="white"/>
</svg>
