<svg width="28" height="23" viewBox="0 0 28 23" fill="none" xmlns="http://www.w3.org/2000/svg">
<path d="M6.75263 22.3085C4.94827 22.3085 3.50479 21.6405 2.42217 20.3046C1.37966 18.9282 0.858398 17.3089 0.858398 15.4468C0.858398 13.9084 1.13908 12.4713 1.70043 11.1354C2.26179 9.7995 2.96348 8.58504 3.80551 7.49203C4.68764 6.39901 5.60987 5.44768 6.57219 4.63804C7.57461 3.78792 8.49684 3.07948 9.33887 2.51273C10.1809 1.9055 10.8625 1.4602 11.3838 1.17682C11.9452 0.893449 12.2058 0.751762 12.1657 0.751762L13.549 2.63418C13.1882 2.79611 12.707 3.11996 12.1055 3.60575C11.5041 4.05105 10.9026 4.59756 10.3012 5.24527C9.73984 5.89298 9.23863 6.60142 8.79756 7.37058C8.3565 8.09926 8.13597 8.80769 8.13597 9.49589C8.13597 9.90071 8.37655 10.3055 8.85771 10.7104C9.33887 11.0747 9.86013 11.52 10.4215 12.0463C10.9828 12.532 11.5041 13.1393 11.9853 13.868C12.4664 14.5561 12.707 15.4063 12.707 16.4183C12.707 17.3089 12.5266 18.1186 12.1657 18.8472C11.8449 19.5759 11.4039 20.2034 10.8425 20.7297C10.3212 21.2154 9.69974 21.6 8.978 21.8834C8.25626 22.1668 7.51447 22.3085 6.75263 22.3085ZM21.5483 22.4299C20.6261 22.4299 19.7841 22.2275 19.0222 21.8227C18.2604 21.4179 17.5988 20.8713 17.0375 20.1832C16.4761 19.495 16.035 18.7056 15.7143 17.815C15.4336 16.8839 15.2932 15.8921 15.2932 14.8395C15.2932 12.7345 15.7343 10.7913 16.6164 9.0101C17.5387 7.18841 18.5411 5.62985 19.6237 4.33442C20.9068 2.79611 22.3703 1.39948 24.0143 0.144531L25.7585 1.78405C25.3976 2.02695 24.9566 2.41153 24.4353 2.93779C23.9541 3.46406 23.493 4.09153 23.052 4.82021C22.651 5.50841 22.2901 6.23708 21.9694 7.00624C21.6887 7.7754 21.5483 8.52432 21.5483 9.253C21.5483 9.73878 21.8491 10.1436 22.4505 10.4675C23.052 10.7913 23.7136 11.1961 24.4353 11.6819C25.1571 12.1677 25.8186 12.7952 26.4201 13.5643C27.0216 14.293 27.3223 15.3253 27.3223 16.6612C27.3223 17.4709 27.1619 18.2198 26.8411 18.908C26.5203 19.5962 26.0793 20.2034 25.5179 20.7297C24.9967 21.2559 24.3752 21.681 23.6534 22.0048C22.9718 22.2882 22.2701 22.4299 21.5483 22.4299Z" fill="url(#paint0_linear)"/>
<defs>
<linearGradient id="paint0_linear" x1="-0.00426833" y1="-3.64332" x2="31.0568" y2="11.0921" gradientUnits="userSpaceOnUse">
<stop stop-color="#8D5FFF"/>
<stop offset="1" stop-color="#070770"/>
</linearGradient>
</defs>
</svg>
