<svg width="29" height="29" viewBox="0 0 29 29" fill="none" xmlns="http://www.w3.org/2000/svg">
<circle cx="14.1744" cy="14.7094" r="13.9419" transform="rotate(90 14.1744 14.7094)" fill="url(#paint0_linear)"/>
<path d="M21.3606 18.1898L20.0718 19.4787L18.1518 17.5409C17.8051 17.1942 17.2362 17.1942 16.8895 17.5409C16.5429 17.8876 16.5429 18.4565 16.8895 18.8031L18.8273 20.7231L17.5384 22.012C17.477 22.0747 17.4355 22.1541 17.4192 22.2403C17.4028 22.3265 17.4123 22.4157 17.4466 22.4965C17.4808 22.5773 17.5382 22.6461 17.6115 22.6944C17.6847 22.7426 17.7707 22.7681 17.8584 22.7676L21.6718 22.7676C21.9206 22.7676 22.1162 22.572 22.1162 22.3231L22.1162 18.5098C22.1167 18.4221 22.0912 18.3361 22.043 18.2628C21.9948 18.1895 21.9259 18.1322 21.8451 18.0979C21.7643 18.0637 21.6752 18.0542 21.589 18.0705C21.5028 18.0869 21.4233 18.1284 21.3606 18.1898ZM17.5384 7.52314L18.8273 8.81203L16.8895 10.732C16.5429 11.0787 16.5429 11.6476 16.8895 11.9942C17.2362 12.3409 17.8051 12.3409 18.1518 11.9942L20.0718 10.0565L21.3606 11.3454C21.4233 11.4068 21.5028 11.4483 21.589 11.4646C21.6752 11.481 21.7643 11.4714 21.8451 11.4372C21.9259 11.403 21.9948 11.3456 22.043 11.2723C22.0912 11.199 22.1167 11.1131 22.1162 11.0254L22.1162 7.21203C22.1162 6.96314 21.9206 6.76759 21.6718 6.76759L17.8584 6.76759C17.4584 6.76759 17.2629 7.24759 17.5384 7.52314ZM6.87177 11.3454L8.16066 10.0565L10.0807 11.9942C10.4273 12.3409 10.9962 12.3409 11.3429 11.9942C11.6895 11.6476 11.6895 11.0787 11.3429 10.732L9.4051 8.81203L10.694 7.52314C10.7554 7.46048 10.7969 7.38103 10.8133 7.29482C10.8296 7.20861 10.8201 7.11949 10.7859 7.03869C10.7516 6.95789 10.6943 6.88903 10.621 6.84079C10.5477 6.79254 10.4617 6.76707 10.374 6.76759L6.56066 6.76759C6.31177 6.76759 6.11622 6.96314 6.11622 7.21203L6.11622 11.0254C6.1157 11.1131 6.14117 11.199 6.18942 11.2723C6.23766 11.3456 6.30652 11.403 6.38732 11.4372C6.46812 11.4714 6.55724 11.481 6.64346 11.4646C6.72967 11.4483 6.80911 11.4068 6.87177 11.3454ZM10.694 22.012L9.4051 20.7231L11.3429 18.8031C11.6895 18.4565 11.6895 17.8876 11.3429 17.5409C10.9962 17.1942 10.4273 17.1942 10.0807 17.5409L8.16066 19.4787L6.87177 18.1898C6.80911 18.1284 6.72967 18.0869 6.64346 18.0705C6.55724 18.0542 6.46812 18.0637 6.38732 18.0979C6.30652 18.1322 6.23766 18.1895 6.18942 18.2628C6.14117 18.3361 6.1157 18.422 6.11622 18.5098L6.11622 22.3231C6.11622 22.572 6.31177 22.7676 6.56066 22.7676L10.374 22.7676C10.4617 22.7681 10.5477 22.7426 10.621 22.6944C10.6943 22.6461 10.7516 22.5773 10.7859 22.4965C10.8201 22.4157 10.8296 22.3265 10.8133 22.2403C10.7969 22.1541 10.7554 22.0747 10.694 22.012Z" fill="white"/>
<defs>
<linearGradient id="paint0_linear" x1="-0.676443" y1="-3.97183" x2="33.8986" y2="9.84079" gradientUnits="userSpaceOnUse">
<stop stop-color="#8D5FFF"/>
<stop offset="1" stop-color="#070770"/>
</linearGradient>
</defs>
</svg>
