<svg width="12" height="12" viewBox="0 0 12 12" fill="none" xmlns="http://www.w3.org/2000/svg">
<path d="M5.55347 0.23877C2.49906 0.23877 0 2.73766 0 5.79187C0 8.84608 2.49906 11.345 5.55347 11.345C8.60788 11.345 11.1069 8.84608 11.1069 5.79187C11.1069 2.73766 8.60788 0.23877 5.55347 0.23877ZM5.55347 10.2344C3.10439 10.2344 1.11069 8.24079 1.11069 5.79187C1.11069 3.34295 3.10439 1.34939 5.55347 1.34939C8.00255 1.34939 9.99625 3.34295 9.99625 5.79187C9.99625 8.24079 8.00255 10.2344 5.55347 10.2344ZM5.83114 3.01532H4.99812V6.34718L7.88593 8.12417L8.33021 7.40227L5.83114 5.90293V3.01532Z" fill="black" fill-opacity="0.5"/>
</svg>
