<svg width="16" height="12" viewBox="0 0 16 12" fill="none" xmlns="http://www.w3.org/2000/svg">
<path d="M7.84727 11.6954C8.66645 10.9215 9.22694 9.8896 9.44251 8.8147C9.57185 8.34175 9.65808 7.8688 9.7012 7.39584C11.124 8.59972 13.2797 8.38475 14.4869 6.96589C15.6941 5.54703 15.4786 3.39724 14.0558 2.19336C12.633 0.989478 10.4773 1.20446 9.27005 2.62332C9.05448 2.88129 8.88202 3.13926 8.79579 3.39724L7.84727 3.39724L8.49399 2.70931C9.09759 2.10737 9.09759 1.11846 8.49399 0.473528C7.89038 -0.128412 6.94186 -0.171408 6.33825 0.430532L4.01006 2.40834C3.40646 2.49433 2.84597 2.70931 2.32859 3.01028C1.94056 3.22526 1.55253 3.52623 1.25072 3.8272L0.431545 3.8272C0.172857 3.8272 0.000398461 3.99918 0.00039845 4.25715L0.000398194 10.1046C0.000398185 10.3196 0.215971 10.5345 0.431545 10.5345L1.55252 10.5345C2.54416 11.3515 3.79449 11.7814 5.04481 11.7814L7.54546 11.7814C7.71792 11.8244 7.80415 11.7814 7.84727 11.6954ZM11.9 2.23635C13.3228 2.23635 14.4438 3.39724 14.4007 4.8161C14.4007 6.23496 13.2366 7.35285 11.8138 7.30985C11.0378 7.30985 10.3479 6.96589 9.87366 6.36395L12.0294 6.36395C12.403 6.34199 12.7541 6.17833 13.0106 5.90653C13.2672 5.63472 13.4097 5.27535 13.4091 4.90209C13.4522 4.12817 12.8055 3.44024 12.0294 3.44023L9.78743 3.44023C10.2186 2.70931 11.0378 2.27935 11.9 2.23635ZM5.08793 10.9645C3.96695 11.0075 2.88908 10.6205 2.02679 9.8896C1.94056 9.80361 1.85433 9.71761 1.72498 9.71761L0.819576 9.71761L0.819576 4.73011L1.42318 4.73011C1.55253 4.73011 1.68187 4.64412 1.7681 4.55812C2.02679 4.25715 2.32859 3.99918 2.71662 3.7842C3.14777 3.52623 3.66514 3.35424 4.18252 3.26825C4.26875 3.26825 4.35498 3.22526 4.44121 3.18226L6.89874 1.11846C7.02809 0.989477 7.20055 0.903486 7.41612 0.903486C7.58858 0.903486 7.80415 0.989477 7.9335 1.11846C8.19218 1.41943 8.19218 1.84939 7.9335 2.15036L6.68317 3.39724L5.38973 3.39724L5.82088 4.21416L12.0294 4.21416C12.3312 4.25715 12.5899 4.51513 12.5468 4.85909C12.5468 5.16007 12.3312 5.46104 12.0294 5.46104L7.0712 5.46103L6.89874 6.32095L8.88202 6.32095C8.92513 6.36395 8.92513 6.40694 8.96825 6.44994C8.96825 6.75091 8.92513 7.05188 8.88202 7.35285L6.68317 7.35285L6.55383 8.04078L8.79579 8.04078L8.66645 8.55673C8.62333 8.77171 8.5371 8.98669 8.45087 9.20167L6.29514 9.20167L6.16579 9.8896L8.14907 9.8896C7.97661 10.2766 7.71792 10.6205 7.41612 10.9215L5.08793 10.9645Z" fill="url(#paint0_linear)"/>
<defs>
<linearGradient id="paint0_linear" x1="13.6608" y1="0.242016" x2="13.2001" y2="12.2624" gradientUnits="userSpaceOnUse">
<stop stop-color="#FF003E"/>
<stop offset="0.5" stop-color="#FF003E"/>
<stop offset="1" stop-color="#EC2F5D"/>
</linearGradient>
</defs>
</svg>
