<svg width="28" height="34" viewBox="0 0 28 34" fill="none" xmlns="http://www.w3.org/2000/svg">
<path d="M14.3104 33.9697L4.08494 21.9361C3.94286 21.7555 3.80225 21.5736 3.66312 21.3906C1.91643 19.0947 0.972831 16.2904 0.977065 13.4078C0.977065 9.87915 2.38182 6.49503 4.8823 3.9999C7.38279 1.50478 10.7742 0.103027 14.3104 0.103027C17.8466 0.103027 21.238 1.50478 23.7385 3.9999C26.239 6.49503 27.6437 9.87915 27.6437 13.4078C27.6479 16.289 26.7048 19.0921 24.9589 21.387L24.9576 21.3906C24.9576 21.3906 24.594 21.8672 24.5395 21.9313L14.3104 33.9697ZM5.59767 19.9332C5.60009 19.9332 5.8813 20.3057 5.94555 20.3855L14.3104 30.2298L22.6861 20.3722C22.7395 20.3057 23.0231 19.9308 23.0243 19.9295C24.4512 18.0537 25.2223 15.7628 25.2195 13.4078C25.2195 10.5207 24.0701 7.75189 22.0243 5.71043C19.9784 3.66896 17.2037 2.52207 14.3104 2.52207C11.4171 2.52207 8.64235 3.66896 6.5965 5.71043C4.55065 7.75189 3.4013 10.5207 3.4013 13.4078C3.39876 15.7642 4.17073 18.0565 5.59888 19.9332H5.59767Z" fill="white"/>
<path d="M20.3106 19.4366H17.8839V9.72989H10.6039V19.4366H8.17725V9.72989C8.17789 9.08649 8.43376 8.46964 8.88871 8.01469C9.34366 7.55974 9.96052 7.30387 10.6039 7.30322H17.8839C18.5273 7.30387 19.1442 7.55974 19.5991 8.01469C20.0541 8.46964 20.3099 9.08649 20.3106 9.72989V19.4366Z" fill="white"/>
<path d="M13.1099 17.0361H15.5099V19.4361H13.1099V17.0361Z" fill="white"/>
<path d="M13.1099 12.2363H15.5099V14.6363H13.1099V12.2363Z" fill="white"/>
</svg>
