<svg width="43" height="31" viewBox="0 0 43 31" fill="none" xmlns="http://www.w3.org/2000/svg">
<path d="M42.0404 17.3256C41.8193 17.4901 41.5411 17.5608 41.2673 17.5223C40.9934 17.4838 40.7461 17.3392 40.58 17.1203C39.7091 15.9618 38.5758 15.0219 37.2711 14.3762C35.9663 13.7304 34.5267 13.3969 33.068 13.4025C32.7914 13.4025 32.526 13.2937 32.3304 13.1C32.1347 12.9063 32.0248 12.6437 32.0248 12.3698C32.0248 12.0959 32.1347 11.8332 32.3304 11.6395C32.526 11.4459 32.7914 11.3371 33.068 11.3371C33.9257 11.3369 34.7656 11.0952 35.4897 10.6401C36.2138 10.1851 36.7922 9.53558 37.1574 8.76734C37.5225 7.9991 37.6594 7.14388 37.552 6.30152C37.4446 5.45916 37.0973 4.66443 36.5508 4.01012C36.0042 3.35581 35.2809 2.86892 34.4653 2.6063C33.6497 2.34368 32.7755 2.31616 31.9447 2.52696C31.1139 2.73777 30.3608 3.17819 29.7733 3.79681C29.1859 4.41543 28.7883 5.18672 28.6271 6.02063C28.6016 6.15387 28.5497 6.28083 28.4746 6.39425C28.3995 6.50768 28.3026 6.60534 28.1893 6.68168C28.0761 6.75801 27.9488 6.81152 27.8146 6.83914C27.6805 6.86676 27.5422 6.86796 27.4076 6.84267C27.273 6.81738 27.1448 6.76609 27.0302 6.69173C26.9156 6.61737 26.8169 6.5214 26.7398 6.4093C26.6627 6.29719 26.6087 6.17115 26.5808 6.03837C26.5529 5.90559 26.5517 5.76867 26.5772 5.63542C26.7772 4.59405 27.2299 3.61639 27.8962 2.78664C28.5626 1.95689 29.4227 1.29991 30.4025 0.872267C31.3823 0.444627 32.4524 0.259142 33.5207 0.331783C34.589 0.404424 35.6234 0.733016 36.5349 1.28926C37.4464 1.84551 38.2077 2.61275 38.7532 3.5249C39.2987 4.43706 39.6121 5.4668 39.6664 6.52547C39.7207 7.58414 39.5142 8.64 39.0648 9.60214C38.6153 10.5643 37.9364 11.4039 37.0864 12.0486C39.1431 12.808 40.9351 14.1382 42.2479 15.8798C42.414 16.0988 42.4855 16.3741 42.4466 16.6452C42.4077 16.9164 42.2616 17.1611 42.0404 17.3256ZM32.1916 29.1291C32.2525 29.2511 32.2885 29.3838 32.2974 29.5196C32.3063 29.6555 32.288 29.7917 32.2436 29.9205C32.1992 30.0493 32.1294 30.1681 32.0385 30.2702C31.9475 30.3722 31.837 30.4554 31.7134 30.5151C31.5898 30.5747 31.4555 30.6095 31.3183 30.6176C31.181 30.6257 31.0435 30.6068 30.9137 30.5621C30.7838 30.5174 30.6642 30.4477 30.5616 30.3571C30.459 30.2664 30.3756 30.1566 30.3161 30.0339C29.488 28.3501 28.1984 26.9306 26.5944 25.9377C24.9905 24.9447 23.1368 24.4181 21.245 24.4181C19.3533 24.4181 17.4996 24.9447 15.8957 25.9377C14.2917 26.9306 13.0021 28.3501 12.174 30.0339C12.1145 30.1566 12.0311 30.2664 11.9285 30.3571C11.8259 30.4477 11.7063 30.5174 11.5764 30.5621C11.4466 30.6068 11.3091 30.6257 11.1718 30.6176C11.0346 30.6095 10.9003 30.5747 10.7767 30.5151C10.6531 30.4554 10.5426 30.3722 10.4516 30.2702C10.3606 30.1681 10.2909 30.0493 10.2465 29.9205C10.2021 29.7917 10.1838 29.6555 10.1927 29.5196C10.2016 29.3838 10.2376 29.2511 10.2985 29.1291C11.6428 26.3713 14.0026 24.2277 16.8933 23.1384C15.4458 22.2092 14.3407 20.8415 13.7427 19.2395C13.1448 17.6374 13.0862 15.8869 13.5757 14.2492C14.0651 12.6115 15.0764 11.1744 16.4586 10.1523C17.8408 9.13023 19.5197 8.57798 21.245 8.57798C22.9702 8.57798 24.6492 9.13023 26.0313 10.1523C27.4135 11.1744 28.4248 12.6115 28.9142 14.2492C29.4037 15.8869 29.3451 17.6374 28.7472 19.2395C28.1493 20.8415 27.0441 22.2092 25.5966 23.1384C28.4874 24.2277 30.8473 26.3713 32.1916 29.1291ZM21.245 22.3527C22.4142 22.3527 23.5572 22.0095 24.5293 21.3665C25.5014 20.7234 26.2591 19.8095 26.7066 18.7401C27.154 17.6708 27.271 16.4942 27.0429 15.359C26.8149 14.2238 26.2518 13.181 25.4251 12.3626C24.5984 11.5442 23.545 10.9868 22.3983 10.761C21.2516 10.5352 20.063 10.6511 18.9828 11.094C17.9026 11.537 16.9794 12.287 16.3298 13.2494C15.6803 14.2118 15.3336 15.3432 15.3336 16.5006C15.3353 18.0522 15.9587 19.5397 17.0669 20.6368C18.1752 21.7339 19.6778 22.351 21.245 22.3527ZM9.42207 11.3371C8.56441 11.3369 7.72449 11.0952 7.00039 10.6401C6.2763 10.1851 5.69789 9.53558 5.33272 8.76734C4.96755 7.9991 4.83068 7.14388 4.93808 6.30152C5.04549 5.45916 5.39275 4.66443 5.93931 4.01012C6.48586 3.35581 7.20917 2.86892 8.02477 2.6063C8.84038 2.34368 9.71462 2.31616 10.5454 2.52696C11.3762 2.73777 12.1293 3.17819 12.7168 3.79681C13.3042 4.41543 13.7017 5.18672 13.863 6.02063C13.9146 6.28973 14.0722 6.5275 14.3009 6.68163C14.5296 6.83576 14.8108 6.89362 15.0827 6.8425C15.3545 6.79137 15.5947 6.63544 15.7504 6.409C15.9061 6.18257 15.9645 5.90418 15.9129 5.63508C15.7128 4.59374 15.2601 3.61613 14.5937 2.78643C13.9273 1.95673 13.0672 1.2998 12.0874 0.872212C11.1076 0.444622 10.0375 0.259181 8.96927 0.331857C7.90102 0.404532 6.86662 0.733147 5.95513 1.2894C5.04364 1.84566 4.28238 2.6129 3.7369 3.52504C3.19141 4.43719 2.87805 5.46692 2.82379 6.52556C2.76952 7.58421 2.97599 8.64004 3.42541 9.60217C3.87482 10.5643 4.55372 11.4039 5.40365 12.0486C3.34681 12.808 1.55468 14.1382 0.241878 15.88C0.159589 15.9884 0.0996793 16.1118 0.065569 16.2432C0.0314588 16.3745 0.0238159 16.5112 0.043077 16.6455C0.0623381 16.7798 0.108126 16.909 0.177826 17.0257C0.247526 17.1425 0.339773 17.2445 0.449301 17.326C0.558829 17.4074 0.683493 17.4667 0.816174 17.5005C0.948855 17.5343 1.08695 17.5418 1.22259 17.5228C1.35822 17.5037 1.48874 17.4584 1.60668 17.3894C1.72462 17.3204 1.82767 17.229 1.90996 17.1206C2.78074 15.962 3.91412 15.022 5.21888 14.3762C6.52364 13.7304 7.96333 13.3969 9.42207 13.4025C9.69875 13.4025 9.96409 13.2937 10.1597 13.1C10.3554 12.9063 10.4653 12.6437 10.4653 12.3698C10.4653 12.0959 10.3554 11.8332 10.1597 11.6395C9.96409 11.4459 9.69875 11.3371 9.42207 11.3371Z" fill="white"/>
</svg>
