<svg width="31" height="32" viewBox="0 0 31 32" fill="none" xmlns="http://www.w3.org/2000/svg">
<path d="M6.99575 8.62382C6.15254 8.62382 5.32827 8.37378 4.62717 7.90532C3.92607 7.43686 3.37963 6.77102 3.05695 5.992C2.73427 5.21298 2.64984 4.35576 2.81434 3.52876C2.97884 2.70176 3.38489 1.9421 3.98112 1.34587C4.57736 0.749632 5.33701 0.34359 6.16401 0.179088C6.99102 0.0145872 7.84823 0.0990152 8.62725 0.421696C9.40627 0.744377 10.0721 1.29082 10.5406 1.99192C11.009 2.69302 11.2591 3.51729 11.2591 4.36049C11.2591 5.4912 10.8099 6.57559 10.0104 7.37512C9.21084 8.17465 8.12645 8.62382 6.99575 8.62382ZM6.99575 2.22883C6.57414 2.22883 6.16201 2.35385 5.81146 2.58808C5.46091 2.82231 5.18769 3.15523 5.02635 3.54474C4.86501 3.93425 4.82279 4.36286 4.90504 4.77636C4.98729 5.18986 5.19032 5.56969 5.48843 5.86781C5.78655 6.16592 6.16638 6.36894 6.57988 6.4512C6.99338 6.53345 7.42199 6.49123 7.8115 6.32989C8.20101 6.16855 8.53393 5.89533 8.76816 5.54478C9.00239 5.19423 9.12741 4.7821 9.12741 4.36049C9.12741 3.79514 8.90282 3.25294 8.50306 2.85318C8.10329 2.45342 7.5611 2.22883 6.99575 2.22883Z" fill="white"/>
<path d="M24.0495 8.62382C23.2063 8.62382 22.382 8.37378 21.6809 7.90532C20.9798 7.43686 20.4333 6.77102 20.1107 5.992C19.788 5.21298 19.7036 4.35576 19.8681 3.52876C20.0326 2.70176 20.4386 1.9421 21.0348 1.34587C21.6311 0.749632 22.3907 0.34359 23.2177 0.179088C24.0447 0.0145872 24.9019 0.0990152 25.681 0.421696C26.46 0.744377 27.1258 1.29082 27.5943 1.99192C28.0627 2.69302 28.3128 3.51729 28.3128 4.36049C28.3128 5.4912 27.8636 6.57559 27.0641 7.37512C26.2646 8.17465 25.1802 8.62382 24.0495 8.62382ZM24.0495 2.22883C23.6279 2.22883 23.2157 2.35385 22.8652 2.58808C22.5146 2.82231 22.2414 3.15523 22.0801 3.54474C21.9187 3.93425 21.8765 4.36286 21.9588 4.77636C22.041 5.18986 22.244 5.56969 22.5421 5.86781C22.8403 6.16592 23.2201 6.36894 23.6336 6.4512C24.0471 6.53345 24.4757 6.49123 24.8652 6.32989C25.2547 6.16855 25.5876 5.89533 25.8219 5.54478C26.0561 5.19423 26.1811 4.7821 26.1811 4.36049C26.1811 3.79514 25.9565 3.25294 25.5568 2.85318C25.157 2.45342 24.6148 2.22883 24.0495 2.22883Z" fill="white"/>
<path d="M26.181 31.0061H21.9177C21.3523 31.0061 20.8101 30.7815 20.4104 30.3817C20.0106 29.982 19.786 29.4398 19.786 28.8744V21.4136H21.9177V28.8744H26.181V19.2819H28.3127V12.8869C28.3127 12.6043 28.2004 12.3332 28.0005 12.1333C27.8006 11.9334 27.5295 11.8211 27.2468 11.8211H20.4042L15.5227 20.3478L10.6412 11.8211H3.79857C3.51589 11.8211 3.24479 11.9334 3.04491 12.1333C2.84503 12.3332 2.73274 12.6043 2.73274 12.8869V19.2819H4.8644V28.8744H9.12772V21.4136H11.2594V28.8744C11.2594 29.4398 11.0348 29.982 10.635 30.3817C10.2353 30.7815 9.69307 31.0061 9.12772 31.0061H4.8644C4.29905 31.0061 3.75685 30.7815 3.35708 30.3817C2.95732 29.982 2.73274 29.4398 2.73274 28.8744V21.4136C2.16738 21.4136 1.62519 21.189 1.22542 20.7892C0.825659 20.3895 0.601074 19.8473 0.601074 19.2819V12.8869C0.601074 12.0389 0.937952 11.2256 1.5376 10.626C2.13724 10.0263 2.95054 9.68945 3.79857 9.68945H11.8776L15.5227 16.0844L19.1678 9.68945H27.2468C28.0949 9.68945 28.9082 10.0263 29.5078 10.626C30.1075 11.2256 30.4443 12.0389 30.4443 12.8869V19.2819C30.4443 19.8473 30.2198 20.3895 29.82 20.7892C29.4202 21.189 28.878 21.4136 28.3127 21.4136V28.8744C28.3127 29.4398 28.0881 29.982 27.6883 30.3817C27.2886 30.7815 26.7464 31.0061 26.181 31.0061Z" fill="white"/>
</svg>
