<svg width="16" height="13" viewBox="0 0 16 13" fill="none" xmlns="http://www.w3.org/2000/svg">
<path d="M7.80439 12.3766C8.61914 11.607 9.17661 10.5808 9.39101 9.51179C9.51966 9.04144 9.60542 8.57109 9.6483 8.10074C11.0634 9.29799 13.2075 9.0842 14.4082 7.67315C15.6089 6.2621 15.3944 4.12415 13.9793 2.92689C12.5643 1.72964 10.4202 1.94343 9.21949 3.35448C9.00508 3.61104 8.83355 3.86759 8.74779 4.12415L7.80439 4.12415L8.44762 3.44C9.04796 2.84137 9.04796 1.85791 8.44762 1.21653C7.84728 0.6179 6.90388 0.575141 6.30354 1.17377L3.98793 3.14069C3.38759 3.2262 2.83013 3.44 2.31555 3.73931C1.92961 3.95311 1.54368 4.25242 1.24351 4.55174L0.428756 4.55174C0.171466 4.55174 -6.02554e-05 4.72277 -6.02666e-05 4.97933L-6.05209e-05 10.7946C-6.05302e-05 11.0084 0.214347 11.2222 0.428755 11.2222L1.54368 11.2222C2.52995 12.0346 3.77352 12.4622 5.01709 12.4622L7.50422 12.4622C7.67575 12.5049 7.76151 12.4622 7.80439 12.3766ZM11.8353 2.96965C13.2504 2.96965 14.3653 4.12415 14.3224 5.53519C14.3224 6.94624 13.1646 8.05798 11.7495 8.01522C10.9776 8.01522 10.2915 7.67315 9.81983 7.07452L11.9639 7.07452C12.3355 7.05269 12.6847 6.88993 12.9398 6.61962C13.195 6.34931 13.3368 5.99192 13.3361 5.62071C13.379 4.85105 12.7358 4.1669 11.9639 4.1669L9.73407 4.1669C10.1629 3.44 10.9776 3.01241 11.8353 2.96965ZM5.05997 11.6497C3.94505 11.6925 2.87301 11.3077 2.01537 10.5808C1.92961 10.4952 1.84385 10.4097 1.7152 10.4097L0.814689 10.4097L0.814689 5.44968L1.41503 5.44968C1.54368 5.44968 1.67232 5.36416 1.75808 5.27864C2.01537 4.97933 2.31555 4.72277 2.70148 4.50898C3.1303 4.25242 3.64488 4.08139 4.15946 3.99587C4.24522 3.99587 4.33098 3.95311 4.41675 3.91035L6.861 1.85791C6.98964 1.72964 7.16117 1.64412 7.37558 1.64412C7.5471 1.64412 7.76151 1.72964 7.89016 1.85791C8.14745 2.15723 8.14745 2.58482 7.89016 2.88413L6.64659 4.12415L5.36014 4.12415L5.78896 4.93657L11.9639 4.93657C12.2641 4.97933 12.5214 5.23588 12.4785 5.57795C12.4785 5.87727 12.2641 6.17658 11.9639 6.17658L7.03252 6.17658L6.861 7.03176L8.83355 7.03176C8.87644 7.07452 8.87644 7.11728 8.91932 7.16004C8.91932 7.45935 8.87643 7.75867 8.83355 8.05798L6.64659 8.05798L6.51794 8.74213L8.74779 8.74213L8.61915 9.25524C8.57626 9.46903 8.4905 9.68283 8.40474 9.89662L6.26066 9.89662L6.13201 10.5808L8.10457 10.5808C7.93304 10.9656 7.67575 11.3077 7.37558 11.607L5.05997 11.6497Z" fill="url(#paint0_linear)"/>
<defs>
<linearGradient id="paint0_linear" x1="13.5866" y1="0.986289" x2="13.1284" y2="12.9405" gradientUnits="userSpaceOnUse">
<stop stop-color="#FF003E"/>
<stop offset="0.5" stop-color="#FF003E"/>
<stop offset="1" stop-color="#EC2F5D"/>
</linearGradient>
</defs>
</svg>
