<svg width="9" height="12" viewBox="0 0 9 12" fill="none" xmlns="http://www.w3.org/2000/svg">
<path d="M4.34019 3.64724e-10C3.19258 0.000958517 2.09198 0.45601 1.27877 1.26576C0.465568 2.07552 0.00583985 3.17417 0 4.32177C0 6.04237 0.965306 7.48296 1.67271 8.53301L1.80166 8.72459C2.50548 9.74466 3.26051 10.7284 4.06386 11.6721L4.34388 12L4.62389 11.6721C5.42714 10.7283 6.18217 9.74458 6.88609 8.72459L7.01505 8.52932C7.71876 7.47928 8.68407 6.04237 8.68407 4.32177C8.67822 3.17354 8.21799 2.07433 7.40399 1.26447C6.58998 0.454606 5.48844 -1.48687e-05 4.34019 3.64724e-10ZM6.39976 8.10562L6.26712 8.30089C5.63341 9.25146 4.79337 10.3162 4.34019 10.8431C3.90543 10.3162 3.04698 9.25146 2.41326 8.30089L2.28431 8.10562C1.63218 7.13294 0.736875 5.80289 0.736875 4.30703C0.736875 3.83384 0.830077 3.36528 1.01116 2.9281C1.19224 2.49093 1.45766 2.0937 1.79226 1.7591C2.12686 1.4245 2.52409 1.15908 2.96126 0.978001C3.39844 0.796917 3.867 0.703715 4.34019 0.703715C4.81339 0.703715 5.28195 0.796917 5.71912 0.978001C6.15629 1.15908 6.55352 1.4245 6.88812 1.7591C7.22272 2.0937 7.48814 2.49093 7.66922 2.9281C7.8503 3.36528 7.94351 3.83384 7.94351 4.30703C7.94351 5.81762 7.05189 7.14768 6.39976 8.10562Z" fill="url(#paint0_linear)"/>
<defs>
<linearGradient id="paint0_linear" x1="-0.283082" y1="-2.03964" x2="11.2403" y2="1.29183" gradientUnits="userSpaceOnUse">
<stop stop-color="#8D5FFF"/>
<stop offset="1" stop-color="#070770"/>
</linearGradient>
</defs>
</svg>
