<svg width="14" height="16" viewBox="0 0 14 16" fill="none" xmlns="http://www.w3.org/2000/svg">
<path d="M11.5969 4.66824C11.5969 2.08941 9.53066 0 6.98047 0C4.43029 0 2.36408 2.08941 2.36408 4.66824C2.36408 6.22682 3.11983 7.60847 4.28137 8.45553C4.27393 8.45929 4.26834 8.46118 4.26462 8.46306C3.43255 8.81882 2.68611 9.32894 2.04391 9.98024C1.40171 10.6296 0.899118 11.3864 0.547304 12.2296C0.202936 13.0541 0.0186524 13.9294 3.78617e-05 14.8292C-0.00182359 14.9139 0.0651886 14.9835 0.148954 14.9835H1.26396C1.344 14.9835 1.41102 14.9176 1.41288 14.8367C1.45011 13.3835 2.0253 12.0226 3.04351 10.9911C4.09523 9.92377 5.49131 9.33647 6.98047 9.33647C9.53066 9.33647 11.5969 7.24706 11.5969 4.66824ZM6.98047 7.90588C5.2121 7.90588 3.77878 6.45647 3.77878 4.66824C3.77878 2.88 5.2121 1.43059 6.98047 1.43059C8.74885 1.43059 10.1822 2.88 10.1822 4.66824C10.1822 6.45647 8.74885 7.90588 6.98047 7.90588ZM8.935 12.0659H13.8492C13.9311 12.0659 13.9981 11.9981 13.9981 11.9153V10.8612C13.9981 10.7784 13.9311 10.7106 13.8492 10.7106H10.5638L11.4424 9.57929C11.4628 9.55294 11.474 9.51906 11.474 9.48706C11.474 9.40423 11.407 9.33647 11.3251 9.33647H9.97368C9.88247 9.33647 9.79685 9.37976 9.73914 9.45129L8.46405 11.0908C8.38215 11.1962 8.33747 11.328 8.33747 11.4635C8.33933 11.7967 8.60552 12.0659 8.935 12.0659ZM13.4025 13.2706H8.48825C8.40635 13.2706 8.33933 13.3384 8.33933 13.4212V14.4753C8.33933 14.5581 8.40635 14.6259 8.48825 14.6259H11.7737L10.8951 15.7572C10.8746 15.7835 10.8635 15.8174 10.8635 15.8494C10.8635 15.9322 10.9305 16 11.0124 16H12.3638C12.455 16 12.5406 15.9567 12.5983 15.8852L13.8734 14.2456C13.9553 14.1402 14 14.0085 14 13.8729C13.9981 13.5398 13.732 13.2706 13.4025 13.2706Z" fill="url(#paint0_linear)"/>
<defs>
<linearGradient id="paint0_linear" x1="-0.456371" y1="-2.71953" x2="17.4819" y2="3.55097" gradientUnits="userSpaceOnUse">
<stop stop-color="#8D5FFF"/>
<stop offset="1" stop-color="#070770"/>
</linearGradient>
</defs>
</svg>
