<svg width="14" height="14" viewBox="0 0 14 14" fill="none" xmlns="http://www.w3.org/2000/svg">
<path d="M7.7 1.4C8.99956 1.4 10.2459 1.91625 11.1648 2.83518C12.0838 3.7541 12.6 5.00044 12.6 6.3C12.6 6.48565 12.6737 6.6637 12.805 6.79497C12.9363 6.92625 13.1143 7 13.3 7C13.4857 7 13.6637 6.92625 13.795 6.79497C13.9263 6.6637 14 6.48565 14 6.3C14 4.62914 13.3363 3.02671 12.1548 1.84523C10.9733 0.663748 9.37086 0 7.7 0C7.51435 0 7.3363 0.0737498 7.20503 0.205025C7.07375 0.336301 7 0.514348 7 0.7C7 0.885652 7.07375 1.0637 7.20503 1.19497C7.3363 1.32625 7.51435 1.4 7.7 1.4ZM13.825 9.737C13.7865 9.62463 13.72 9.5239 13.6319 9.4443C13.5437 9.3647 13.4367 9.30885 13.321 9.282L9.121 8.323C9.007 8.29715 8.88833 8.30026 8.77584 8.33206C8.66335 8.36385 8.56061 8.4233 8.477 8.505C8.379 8.596 8.372 8.603 7.917 9.471C6.40724 8.77531 5.1975 7.5606 4.508 6.048C5.397 5.6 5.404 5.6 5.495 5.495C5.5767 5.41139 5.63615 5.30865 5.66794 5.19616C5.69974 5.08367 5.70285 4.965 5.677 4.851L4.718 0.7C4.69115 0.584287 4.6353 0.47731 4.5557 0.389138C4.4761 0.300967 4.37537 0.234502 4.263 0.196C4.09953 0.137613 3.93072 0.0954103 3.759 0.0699999C3.58208 0.0289766 3.40153 0.00552954 3.22 0C2.366 0 1.54698 0.339249 0.943116 0.943116C0.339249 1.54698 0 2.366 0 3.22C0.00370434 6.0779 1.14064 8.81768 3.16148 10.8385C5.18232 12.8594 7.9221 13.9963 10.78 14C11.2029 14 11.6216 13.9167 12.0122 13.7549C12.4029 13.5931 12.7579 13.3559 13.0569 13.0569C13.3559 12.7579 13.5931 12.4029 13.7549 12.0122C13.9167 11.6216 14 11.2029 14 10.78C14.0002 10.6018 13.9862 10.4239 13.958 10.248C13.9286 10.0741 13.8841 9.90315 13.825 9.737ZM10.78 12.6C8.29284 12.5981 5.90808 11.6093 4.14939 9.85061C2.3907 8.09192 1.40185 5.70716 1.4 3.22C1.40184 2.73787 1.59419 2.27602 1.9351 1.9351C2.27602 1.59419 2.73787 1.40184 3.22 1.4H3.451L4.2 4.648L3.822 4.844C3.22 5.159 2.744 5.411 2.996 5.957C3.40636 7.1187 4.07034 8.17441 4.93971 9.04742C5.80909 9.92042 6.86202 10.5888 8.022 11.004C8.61 11.242 8.841 10.801 9.156 10.192L9.359 9.807L12.6 10.549V10.78C12.5982 11.2621 12.4058 11.724 12.0649 12.0649C11.724 12.4058 11.2621 12.5982 10.78 12.6Z" fill="url(#paint0_linear)"/>
<defs>
<linearGradient id="paint0_linear" x1="-0.456371" y1="-2.37959" x2="16.9032" y2="4.55553" gradientUnits="userSpaceOnUse">
<stop stop-color="#8D5FFF"/>
<stop offset="1" stop-color="#070770"/>
</linearGradient>
</defs>
</svg>
