<svg width="16" height="12" viewBox="0 0 16 12" fill="none" xmlns="http://www.w3.org/2000/svg">
<path d="M15.7938 6.82483C15.6844 6.90973 15.5468 6.94626 15.4112 6.92636C15.2757 6.90647 15.1534 6.83179 15.0712 6.71875C14.76 6.28687 14.3551 5.93647 13.8889 5.69573C13.4227 5.455 12.9083 5.33065 12.387 5.33271C12.2502 5.33271 12.1189 5.27654 12.0221 5.17657C11.9253 5.07661 11.8709 4.94102 11.8709 4.79964C11.8709 4.65826 11.9253 4.52267 12.0221 4.4227C12.1189 4.32273 12.2502 4.26657 12.387 4.26657C12.6808 4.26649 12.9685 4.18011 13.2165 4.0175C13.4645 3.85489 13.6626 3.62278 13.7877 3.34825C13.9127 3.07372 13.9596 2.76811 13.9228 2.4671C13.886 2.16609 13.7671 1.88209 13.5799 1.64828C13.3927 1.41446 13.145 1.24047 12.8656 1.14661C12.5863 1.05275 12.2868 1.04291 12.0023 1.11822C11.7177 1.19354 11.4598 1.3509 11.2586 1.57195C11.0573 1.793 10.9212 2.0686 10.8659 2.36659C10.8404 2.50548 10.7624 2.62821 10.6493 2.70776C10.5361 2.78732 10.397 2.81719 10.2625 2.79081C10.128 2.76442 10.0092 2.68394 9.93219 2.56707C9.85516 2.4502 9.82624 2.30651 9.85179 2.16762C9.92815 1.75279 10.0989 1.36264 10.3498 1.02931C10.6008 0.695976 10.9249 0.429 11.2953 0.250374C11.6658 0.0717487 12.072 -0.0134143 12.4806 0.00190124C12.8891 0.0172168 13.2883 0.132572 13.6453 0.338465C14.0022 0.544358 14.3067 0.834895 14.5336 1.18614C14.7605 1.53739 14.9034 1.93929 14.9504 2.35875C14.9975 2.7782 14.9474 3.2032 14.8042 3.59872C14.6611 3.99425 14.429 4.34899 14.1271 4.63372C14.829 4.94728 15.4391 5.44539 15.8965 6.0784C15.9372 6.13437 15.9669 6.19807 15.9837 6.26587C16.0006 6.33367 16.0044 6.40425 15.9949 6.47356C15.9854 6.54287 15.9627 6.60957 15.9282 6.66984C15.8937 6.73011 15.8481 6.78278 15.7939 6.82483H15.7938ZM12.1778 11.2294C12.2081 11.2924 12.2261 11.361 12.2307 11.4312C12.2353 11.5014 12.2263 11.5719 12.2044 11.6385C12.1825 11.7051 12.148 11.7666 12.1029 11.8194C12.0578 11.8722 12.0031 11.9153 11.9419 11.9461C11.8806 11.9769 11.814 11.9949 11.746 11.9991C11.678 12.0032 11.6099 11.9934 11.5455 11.9702C11.4812 11.947 11.4219 11.9108 11.3712 11.8639C11.3205 11.8169 11.2792 11.76 11.2499 11.6965C10.9532 11.067 10.4912 10.5364 9.91657 10.1652C9.34192 9.79405 8.67779 9.59722 8 9.59722C7.32222 9.59722 6.65809 9.79405 6.08344 10.1652C5.50878 10.5364 5.04676 11.067 4.75011 11.6965C4.69014 11.8236 4.58374 11.9208 4.45433 11.9669C4.32491 12.013 4.18307 12.0041 4.06002 11.9421C3.93697 11.8802 3.84279 11.7703 3.79818 11.6366C3.75358 11.5029 3.76222 11.3565 3.82219 11.2294C4.29974 10.2078 5.1138 9.3951 6.11861 8.93691C5.60435 8.53064 5.22631 7.96812 5.03765 7.32843C4.849 6.68874 4.85921 6.00407 5.06685 5.37069C5.27449 4.73731 5.66913 4.18707 6.19526 3.79736C6.72139 3.40764 7.35256 3.19805 8 3.19805C8.64745 3.19805 9.27862 3.40764 9.80475 3.79736C10.3309 4.18707 10.7255 4.73731 10.9332 5.37069C11.1408 6.00407 11.151 6.68874 10.9624 7.32843C10.7737 7.96812 10.3957 8.53064 9.8814 8.93691C10.8862 9.39509 11.7003 10.2078 12.1778 11.2294H12.1778ZM8 8.53111C8.40832 8.53111 8.80747 8.40606 9.14697 8.17176C9.48648 7.93746 9.75109 7.60445 9.90734 7.21483C10.0636 6.8252 10.1045 6.39648 10.0248 5.98286C9.94517 5.56924 9.74854 5.1893 9.45982 4.8911C9.17109 4.5929 8.80324 4.38982 8.40277 4.30754C8.00229 4.22527 7.58719 4.26749 7.20996 4.42888C6.83272 4.59027 6.51029 4.86357 6.28344 5.21422C6.0566 5.56487 5.93552 5.97712 5.93552 6.39884C5.93613 6.96416 6.15384 7.50614 6.54087 7.90588C6.9279 8.30562 7.45266 8.53048 8 8.53111ZM4.12909 4.79964C4.12909 4.65826 4.07471 4.52267 3.97792 4.4227C3.88113 4.32273 3.74985 4.26657 3.61297 4.26657C3.31921 4.26649 3.03154 4.1801 2.78354 4.0175C2.53554 3.85489 2.33744 3.62278 2.21237 3.34826C2.0873 3.07373 2.04042 2.76813 2.07721 2.46712C2.11399 2.16611 2.23292 1.88212 2.42011 1.6483C2.6073 1.41448 2.85503 1.24048 3.13437 1.14662C3.41371 1.05276 3.71314 1.0429 3.9977 1.11821C4.28226 1.19351 4.54021 1.35087 4.74143 1.57191C4.94265 1.79294 5.07884 2.06854 5.13411 2.36652C5.161 2.50405 5.2393 2.62509 5.35204 2.70338C5.46477 2.78167 5.60285 2.8109 5.73631 2.78472C5.86978 2.75854 5.98787 2.67907 6.06497 2.56354C6.14207 2.44802 6.17196 2.30576 6.14816 2.16762C6.07181 1.75277 5.90112 1.3626 5.65015 1.02924C5.39918 0.695889 5.07512 0.428892 4.70465 0.250252C4.33419 0.071611 3.92793 -0.0135607 3.51935 0.00175356C3.11077 0.0170678 2.71156 0.13243 2.35461 0.338335C1.99766 0.54424 1.69318 0.834795 1.46627 1.18606C1.23935 1.53733 1.09649 1.93925 1.04946 2.35873C1.00243 2.7782 1.05257 3.2032 1.19575 3.59874C1.33893 3.99427 1.57105 4.34901 1.87299 4.63372C1.171 4.94728 0.56088 5.44545 0.103463 6.07853C0.0627541 6.13451 0.0331175 6.19821 0.0162458 6.26601C-0.000625919 6.33382 -0.00440243 6.40439 0.00513193 6.4737C0.0243874 6.61367 0.096692 6.74001 0.206139 6.82493C0.315587 6.90984 0.453212 6.94638 0.588738 6.92649C0.724265 6.9066 0.846591 6.83192 0.928807 6.71888C1.23995 6.28697 1.64491 5.93653 2.11112 5.69577C2.57732 5.45501 3.09174 5.33065 3.61297 5.33271C3.74985 5.33271 3.88113 5.27654 3.97792 5.17657C4.07471 5.07661 4.12909 4.94102 4.12909 4.79964Z" fill="url(#paint0_linear)"/>
<defs>
<linearGradient id="paint0_linear" x1="-0.521566" y1="-2.03964" x2="17.3996" y2="7.50628" gradientUnits="userSpaceOnUse">
<stop stop-color="#8D5FFF"/>
<stop offset="1" stop-color="#070770"/>
</linearGradient>
</defs>
</svg>
